<svg xmlns="http://www.w3.org/2000/svg" viewBox="0 0 71.1 76.11"><defs><style>.cls-1{fill:#dd0031;}.cls-2{fill:#c3002f;}.cls-3{fill:#fff;}</style></defs><g id="Layer_2" data-name="Layer 2"><g id="Layer_1-2" data-name="Layer 1"><polygon class="cls-1" points="35.55 0 35.55 76.11 5.5 59.42 0 12.45 35.55 0"/><polygon class="cls-2" points="71.1 12.45 65.61 59.42 35.55 76.11 35.55 0 71.1 12.45"/><path class="cls-3" d="M35.62,8.23,57.7,57.91h-8a.32.32,0,0,1-.35-.24q-2.13-5.31-4.25-10.63a.36.36,0,0,0-.4-.26H26.44a.37.37,0,0,0-.41.26q-2.12,5.33-4.24,10.63a.33.33,0,0,1-.36.24h-8L35.56,8.23ZM29.13,39.9H42.05c-2.15-5.18-4.29-10.33-6.46-15.54C33.42,29.57,31.28,34.72,29.13,39.9Z"/></g></g></svg>