<svg xmlns="http://www.w3.org/2000/svg" viewBox="0 0 128.33 107.8"><defs><style>.cls-1{fill:#0078d4;}</style></defs><g id="Layer_2" data-name="Layer 2"><g id="Layer_1-2" data-name="Layer 1"><path class="cls-1" d="M0,104.19l5.48-13h2l5.82,13H11.16L9.5,100.26h-6L2,104.19Zm4.08-5.33H8.92l-1.48-3.6c-.46-1.11-.79-2-1-2.7a15.51,15.51,0,0,1-.77,2.49Z"/><path class="cls-1" d="M13.65,104.19V102.9L20.21,96c-.74,0-1.4,0-2,0H14V94.78h8.43v1l-5.59,6L15.8,102.9c.78-.05,1.51-.08,2.2-.08h4.76v1.37Z"/><path class="cls-1" d="M31.21,104.19v-1.38a4,4,0,0,1-1.42,1.2,4.18,4.18,0,0,1-1.84.4,4.13,4.13,0,0,1-2.08-.5,2.45,2.45,0,0,1-1.15-1.24,6,6,0,0,1-.29-2.06V94.78h1.74V100a6.34,6.34,0,0,0,.19,2,1.55,1.55,0,0,0,.72.78,2.38,2.38,0,0,0,1.2.3,2.87,2.87,0,0,0,2.06-.77A3.36,3.36,0,0,0,31,99.82v-5h1.75v9.41Z"/><path class="cls-1" d="M35.51,104.19V94.78h1.58v1.43a4.12,4.12,0,0,1,1.1-1.32,2,2,0,0,1,1.13-.32,3.61,3.61,0,0,1,1.78.51l-.59,1.48a2.65,2.65,0,0,0-1.26-.34,1.83,1.83,0,0,0-1,.29,1.59,1.59,0,0,0-.65.81,5.69,5.69,0,0,0-.33,1.94v4.93Z"/><path class="cls-1" d="M49.15,101.16l1.8.21a4,4,0,0,1-1.62,2.27,5.27,5.27,0,0,1-2.92.77,5,5,0,0,1-3.54-1.25,4.65,4.65,0,0,1-1.35-3.59,4.56,4.56,0,0,1,4.82-5,4.7,4.7,0,0,1,3.33,1.25A4.79,4.79,0,0,1,51,99.47v.42H43.32a3.41,3.41,0,0,0,1,2.4,3,3,0,0,0,2.12.8A2.74,2.74,0,0,0,49.15,101.16Zm-5.73-2.58h5.75a3,3,0,0,0-.7-1.82,2.81,2.81,0,0,0-2.14-.88,2.9,2.9,0,0,0-2,.73A2.78,2.78,0,0,0,43.42,98.58Z"/><path class="cls-1" d="M58.88,104.19v-13h4.91a12,12,0,0,1,2.76.24,4.85,4.85,0,0,1,2.15,1.13,5.54,5.54,0,0,1,1.42,2.08,7.89,7.89,0,0,1,.51,3,7.62,7.62,0,0,1-.86,3.75,5.11,5.11,0,0,1-2.22,2.18,8.27,8.27,0,0,1-3.54.64Zm1.88-1.53h3a6.66,6.66,0,0,0,2.77-.45A3.13,3.13,0,0,0,68,100.77a6.86,6.86,0,0,0,.67-3.16A5.75,5.75,0,0,0,68,94.5,3.43,3.43,0,0,0,66.14,93a8.19,8.19,0,0,0-2.4-.26h-3Z"/><path class="cls-1" d="M80,101.16l1.79.21a4,4,0,0,1-1.62,2.27,5.27,5.27,0,0,1-2.92.77,5.05,5.05,0,0,1-3.54-1.25,4.65,4.65,0,0,1-1.35-3.59,4.57,4.57,0,0,1,4.82-5,4.72,4.72,0,0,1,3.34,1.25,4.78,4.78,0,0,1,1.33,3.65v.42H74.2a3.45,3.45,0,0,0,1,2.4,3,3,0,0,0,2.13.8A2.76,2.76,0,0,0,80,101.16ZM74.3,98.58h5.75a3,3,0,0,0-.7-1.82,2.81,2.81,0,0,0-2.14-.88,2.92,2.92,0,0,0-2,.73A2.78,2.78,0,0,0,74.3,98.58Z"/><path class="cls-1" d="M86.92,104.19,83,94.78h1.85l2.21,5.64c.25.63.47,1.27.66,1.89.15-.49.37-1.09.64-1.79l2.3-5.74h1.8l-3.92,9.41Z"/><path class="cls-1" d="M93.69,97.86a6.59,6.59,0,0,1,2-5.11A6.91,6.91,0,0,1,100.49,91a7.26,7.26,0,0,1,3.43.8,6,6,0,0,1,2.45,2.31,6.9,6.9,0,0,1,.91,3.62,6.53,6.53,0,0,1-1.75,4.71,6.68,6.68,0,0,1-5,2,6.6,6.6,0,0,1-5.06-2A6.38,6.38,0,0,1,93.69,97.86Zm1.93,0A4.89,4.89,0,0,0,97,101.62a5.14,5.14,0,0,0,6.9,0,5.2,5.2,0,0,0,1.4-3.94,6.15,6.15,0,0,0-.72-3A4,4,0,0,0,103,93.05a5,5,0,0,0-2.44-.61A4.84,4.84,0,0,0,97,93.77,5.49,5.49,0,0,0,95.62,97.89Z"/><path class="cls-1" d="M109.42,107.8v-13H111V96a3.71,3.71,0,0,1,1.31-1.1,3.93,3.93,0,0,1,1.66-.33,4.44,4.44,0,0,1,2.19.54,4,4,0,0,1,1.58,1.64,5.62,5.62,0,0,1,.59,2.66,4.94,4.94,0,0,1-1.34,3.7,4.39,4.39,0,0,1-3.15,1.3,3.76,3.76,0,0,1-1.5-.31,3.53,3.53,0,0,1-1.21-.88v4.58ZM111,99.54a3.78,3.78,0,0,0,.82,2.69,2.62,2.62,0,0,0,3.91,0,3.94,3.94,0,0,0,.84-2.77,3.89,3.89,0,0,0-.82-2.73,2.58,2.58,0,0,0-2-.88,2.53,2.53,0,0,0-1.91,1A4,4,0,0,0,111,99.54Z"/><path class="cls-1" d="M119.78,101.37l1.74-.24a2.11,2.11,0,0,0,.84,1.48,3.75,3.75,0,0,0,3.56.06,1.23,1.23,0,0,0,.62-1.07,1,1,0,0,0-.53-.86,7.88,7.88,0,0,0-1.77-.54,16.32,16.32,0,0,1-2.72-.79,2.58,2.58,0,0,1-1.06-.88,2.1,2.1,0,0,1-.38-1.25,2.32,2.32,0,0,1,1-2,4.72,4.72,0,0,1,2.84-.75,5.91,5.91,0,0,1,2,.31,2.66,2.66,0,0,1,2,2.33l-1.71.21c-.15-1-.9-1.54-2.23-1.54a3.26,3.26,0,0,0-1.69.34,1,1,0,0,0-.55.87.91.91,0,0,0,.53.82,11.15,11.15,0,0,0,1.89.56,16.72,16.72,0,0,1,2.8.83,2.33,2.33,0,0,1,1,.83,2.17,2.17,0,0,1,.36,1.26,2.58,2.58,0,0,1-1.14,2.18,5.16,5.16,0,0,1-3.12.84C121.61,104.41,120.18,103.39,119.78,101.37Z"/><polygon class="cls-1" points="48.8 81.62 48.8 71.33 79.51 82.05 100.25 64.88 100.25 14.99 80.69 18.9 80.69 63.48 26.88 55.41 48.8 81.62"/><polygon class="cls-1" points="26.27 54.73 26.27 28.64 79.92 18.55 54.76 0 54.76 8.41 26.36 19.87 18.2 30.54 18.2 53.62 26.27 54.73"/></g></g></svg>