<svg xmlns="http://www.w3.org/2000/svg" viewBox="0 0 176.58 50.51"><defs><style>.cls-1{fill:#0089d6;}</style></defs><g id="Layer_2" data-name="Layer 2"><g id="Layer_1-2" data-name="Layer 1"><path class="cls-1" d="M97.79,45c-1.12,0-2.09,0-3.06,0-.47,0-.59-.32-.72-.66-.5-1.31-1-2.63-1.48-3.94-.38-1-.78-2.06-1.15-3.09a.83.83,0,0,0-.91-.62c-3.79,0-7.57,0-11.35,0-.72,0-.73,0-1,.71l-2.4,6.71c-.3.87-.3.87-1.24.87H71.92c.11-.37.19-.65.29-.93q2.45-6.45,4.91-12.89,2.8-7.38,5.62-14.75c.31-.81.31-.81,1.15-.81.64,0,1.28,0,1.92,0a.84.84,0,0,1,1,.65c1.58,4.16,3.19,8.3,4.79,12.45q3,7.72,6,15.45C97.6,44.43,97.67,44.67,97.79,45Zm-13-25.9-.19,0a7.93,7.93,0,0,1-.21.84c-.57,1.67-1.13,3.34-1.73,5-1,2.69-2,5.37-2.94,8.06a6.41,6.41,0,0,0-.16.81h5.24c.85,0,1.69,0,2.54,0A13.27,13.27,0,0,0,90,33.7C88.32,28.76,86.32,24,84.82,19.14Z"/><path class="cls-1" d="M175.05,40.88a11.06,11.06,0,0,1,0,2.51c0,.21-.33.44-.55.57a11.09,11.09,0,0,1-3.42,1.3,13.51,13.51,0,0,1-5.26.11,8.23,8.23,0,0,1-6.64-5.81,13.68,13.68,0,0,1,.77-11.14,8.71,8.71,0,0,1,6-4.64c3.31-.72,6.26-.08,8.55,2.59a8.49,8.49,0,0,1,1.91,4.53c.16,1.21.15,2.45.19,3.67,0,.63-.07.68-.73.69H162.43c-.78,0-.88.16-.81.93A8.52,8.52,0,0,0,162.81,40a6,6,0,0,0,4.73,2.88,10.51,10.51,0,0,0,6.94-1.66Zm-7.51-8.18h5.22c.35,0,.6-.1.59-.52a6.57,6.57,0,0,0-1.63-4.44,5.41,5.41,0,0,0-6.3-.94,6.38,6.38,0,0,0-3,3.17,12.59,12.59,0,0,0-.69,2.1c-.12.43,0,.57.44.62.21,0,.41,0,.62,0Z"/><path class="cls-1" d="M134.64,41.88l-.43.59a6.7,6.7,0,0,1-5.7,3.06,9.24,9.24,0,0,1-3.18-.4,6.23,6.23,0,0,1-4.16-4.82,11.86,11.86,0,0,1-.35-2.72c0-4.2,0-8.39-.06-12.59,0-.83,0-.87.86-.87h1.61c.51,0,.59.09.61.58,0,.74.08,1.48.08,2.23q0,5,0,10.05a8.09,8.09,0,0,0,.59,3,4.62,4.62,0,0,0,5,3,5.26,5.26,0,0,0,4.65-3.15,7,7,0,0,0,.79-3.24c0-3.76,0-7.52,0-11.28,0-1,0-1,1-1,.48,0,1,0,1.45,0s.67.09.7.66c0,.18,0,.36,0,.54V43.92c0,1.12,0,1.12-1.14,1.12H135.5c-.39,0-.56-.16-.56-.55,0-.61,0-1.22,0-1.84,0-.24-.05-.48-.08-.72Z"/><path class="cls-1" d="M104.28,42.36c.3,0,.6,0,.89,0H116a.39.39,0,0,1,.43.43V44.6A.39.39,0,0,1,116,45H100.27c-.28,0-.55,0-.81,0a1.27,1.27,0,0,1,.24-1.4q2.17-3,4.33-6,3.61-4.95,7.22-9.92c.18-.24.31-.5.55-.88l-1-.07h-7.6c-.69,0-1.38,0-2.06-.07s-.63-.11-.66-.63,0-1,0-1.46a.43.43,0,0,1,.48-.47h15.4a1.06,1.06,0,0,1-.19,1.31c-1.33,1.82-2.64,3.64-4,5.47l-7.55,10.44c-.19.27-.35.55-.53.82Z"/><path class="cls-1" d="M148.43,28.33a1.14,1.14,0,0,0,.53-.75,7.74,7.74,0,0,1,1.57-2.35,5.14,5.14,0,0,1,5-1.4c.25.05.46.16.46.43,0,.91,0,1.82,0,2.8l-.7-.19A4.55,4.55,0,0,0,149.7,29a9.61,9.61,0,0,0-1.34,4.82c0,3.38,0,6.75,0,10.13v.53c0,.53-.07.58-.58.6h-2c-.4,0-.56-.17-.54-.56,0-.18,0-.35,0-.53q0-9.41,0-18.8c0-1,0-1,1-1h1.54c.51,0,.57.07.58.58,0,.95,0,1.89,0,2.84C148.35,27.78,148.4,28,148.43,28.33Z"/><polygon class="cls-1" points="16.54 50.52 45.85 45.15 29.96 26.07 38.19 3.67 65.26 50.52 16.54 50.52"/><polyline class="cls-1" points="35.83 0 15.8 44.87 0 44.87"/></g></g></svg>