<svg xmlns="http://www.w3.org/2000/svg" viewBox="0 0 430.32 386.85"><defs><style>.cls-1{opacity:0.5;}</style></defs><g id="Layer_2" data-name="Layer 2"><g id="Layer_1-2" data-name="Layer 1"><g class="cls-1"><rect x="224.83" y="332.23" width="4.4" height="53.79" transform="translate(-162.65 528.43) rotate(-81.18)"/><rect x="213.36" y="355.04" width="23.12" height="35.36" transform="matrix(0.15, -0.99, 0.99, 0.15, -177.87, 537.86)"/><path d="M221.56,335.91l-1.12-.54,9-18.38.47.1a67.35,67.35,0,0,0,7.16,1.11l.48.05,3,20.23-1.23.18-2.84-19.28c-2.25-.25-4.08-.53-6.33-1Z"/><rect x="212.69" y="325.32" width="19.63" height="1.24" transform="translate(-133.68 495.86) rotate(-81.18)"/><path d="M264.31,289.72l-17.65,29.44c-1.25,0-2.51,0-3.76,0-2,0-3.94-.17-5.91-.36-1.21-.13-2.42-.28-3.63-.47s-2.4-.41-3.59-.65c-1.94-.41-3.87-.89-5.76-1.45-1.2-.36-2.4-.75-3.58-1.16l-7.89-33.4a53.49,53.49,0,0,0,6.25,4.17,52.82,52.82,0,0,0,12.44,5.1,57.46,57.46,0,0,0,6.17,1.3,61.06,61.06,0,0,0,6.27.63,52.58,52.58,0,0,0,13.41-1.09A53.92,53.92,0,0,0,264.31,289.72Z"/><rect x="231.59" y="328.25" width="19.63" height="1.24" transform="translate(-120.58 517.01) rotate(-81.18)"/><path d="M176.9,231.9c-1.8-3.13-3.65-6.3-5.57-9.47-22.63-37.32-49.66-77.49-45-114.52.08-.61.16-1.21.26-1.83a118.72,118.72,0,0,1,22.05-52.67,122.19,122.19,0,0,0-9,32c-1.68,18.06-.27,36.17,3.34,54.3q2,10.13,4.91,20.25A309.48,309.48,0,0,0,164,203.5Z"/><line x1="176.91" y1="231.93" x2="176.9" y2="231.9"/><path d="M299.08,253.35l-22.19,30.21a69.72,69.72,0,0,1-12.58,6.16Z"/><path d="M212.54,281.69A68.53,68.53,0,0,1,202.41,272l-12-35.56Z"/><path d="M279.25,250.27,257.08,291.8a52.58,52.58,0,0,1-13.41,1.09l12.21-46.26Z"/><path d="M203.33,202.09l6.9,37.45-19.84-3.1-12-35.39a230.38,230.38,0,0,1,17.06-186l.43-.78A141.46,141.46,0,0,1,240.2.86l-.29.49A287.43,287.43,0,0,0,203.33,202.09Z"/><path d="M231.23,291a52.82,52.82,0,0,1-12.44-5.1l-8.56-46.32,23.39,3.63Z"/><path d="M294.39,3.71c5.8,25.77,4.22,54.39-.37,84-2.89,18.63-7,37.66-11.15,56.62l-27,102.29-22.26-3.46,5.26-105.65c1.77-19.33,3.64-38.7,6.53-57.34C250,50.56,257.17,22.81,270.5,0q6,.43,12,1.37C286.55,2,290.51,2.78,294.39,3.71Z"/><path d="M321.23,223.2l-22.15,30.15-19.83-3.08,17.94-33.62a287.51,287.51,0,0,0,26-202.39l-.14-.55A141.4,141.4,0,0,1,361.15,39.9l.18.87A230.43,230.43,0,0,1,321.23,223.2Z"/><path d="M399.4,148.4c-.09.61-.2,1.21-.3,1.82-6.77,36.7-44.7,66.8-77.57,95.5-2.79,2.44-5.52,4.9-8.19,7.35l20.87-23.17a310.9,310.9,0,0,0,28.55-36.66q5.79-8.79,10.79-17.8c8.95-16.2,15.78-33,19.65-50.74a122.18,122.18,0,0,0,1.14-33.18A118.77,118.77,0,0,1,399.4,148.4Z"/><line x1="313.34" y1="253.07" x2="313.33" y2="253.09"/><path d="M231.66,326.21a8.54,8.54,0,0,1-.2,1c-.37,1.43-1,2.42-1.57,2.34s-.86-1.23-.79-2.7a8.64,8.64,0,0,1,.11-1c.3-1.93,1.09-3.4,1.76-3.3S232,324.28,231.66,326.21Z"/><path d="M235.06,326.74c-.06.34-.12.66-.2,1-.38,1.43-1,2.42-1.58,2.33s-.86-1.22-.78-2.7a8.4,8.4,0,0,1,.1-1c.3-1.93,1.09-3.41,1.77-3.3S235.35,324.81,235.06,326.74Z"/><rect x="214.62" y="336.64" width="31.6" height="1.29" transform="translate(54.42 -31.33) rotate(8.82)"/><rect x="226.1" y="325" width="12.25" height="1.29" transform="matrix(0.99, 0.15, -0.15, 0.99, 52.66, -31.75)"/><rect x="215.45" y="337.84" width="27.38" height="15.31" transform="translate(55.66 -31.04) rotate(8.82)"/></g><g class="cls-1"><rect x="55" y="206.15" width="20.82" height="1.7" transform="translate(-26.88 10.51) rotate(-7.62)"/><rect x="59.27" y="207.81" width="13.68" height="8.95" transform="matrix(0.99, -0.13, 0.13, 0.99, -27.58, 10.65)"/><path d="M60.83,199l-.47-.08,1.32-7.8.18,0a25.78,25.78,0,0,0,2.78-.37l.19,0,3.32,7.18-.44.2-3.16-6.84c-.87.15-1.58.25-2.46.33Z"/><rect x="59.85" y="191.38" width="0.48" height="7.6" transform="translate(-25.36 9.7) rotate(-7.62)"/><path d="M71.64,177.16,68.31,190c-.46.15-.92.29-1.39.41-.74.21-1.48.38-2.23.52-.47.08-.93.16-1.4.22s-.94.11-1.41.15c-.76.06-1.53.1-2.29.1-.49,0-1,0-1.46,0l-6.59-11.53a21.24,21.24,0,0,0,2.78.86,20.8,20.8,0,0,0,5.18.53,20.57,20.57,0,0,0,2.43-.2,22.17,22.17,0,0,0,2.4-.45,20.27,20.27,0,0,0,4.85-1.87A22.24,22.24,0,0,0,71.64,177.16Z"/><rect x="67.19" y="190.4" width="0.48" height="7.6" transform="translate(-25.17 10.66) rotate(-7.62)"/><path d="M32.86,165.27q-1.51-1.46-3.1-2.91C17.27,151,2.83,139,.51,124.78c0-.23-.07-.47-.1-.71a45.87,45.87,0,0,1,2.42-22A47,47,0,0,0,3,115a72.39,72.39,0,0,0,7.19,19.79c1.24,2.36,2.59,4.68,4,7A117.78,117.78,0,0,0,25,156.13Z"/><line x1="32.87" y1="165.28" x2="32.86" y2="165.27"/><path d="M80.56,159.85l-4.93,13.64a27.06,27.06,0,0,1-4,3.67Z"/><path d="M51.54,179.85a27.56,27.56,0,0,1-4.82-2.49l-8.35-11.88Z"/><path d="M72.87,160.87l-3.69,17.85a20.27,20.27,0,0,1-4.85,1.87l-.54-18.51Z"/><path d="M39.41,151.31l6.66,13.14-7.7,1-8.32-11.83A89.17,89.17,0,0,1,16,82.74l.07-.34a55.09,55.09,0,0,1,15-9.83l-.05.22A111.27,111.27,0,0,0,39.41,151.31Z"/><path d="M59.5,181.24a20.8,20.8,0,0,1-5.18-.53l-8.25-16.26,9.08-1.21Z"/><path d="M51.48,67.69c5,8.94,7.52,19.73,9.06,31.23,1,7.23,1.54,14.75,2.07,22.24l1.18,40.92-8.64,1.16-9.62-39.8c-1.46-7.36-2.89-14.76-3.86-22-1.53-11.5-1.92-22.59.54-32.52,1.51-.32,3-.59,4.61-.8S49.94,67.77,51.48,67.69Z"/><path d="M85.48,146.23l-4.92,13.62-7.69,1,3-14.44a111.25,111.25,0,0,0-12.53-78l-.11-.19a54.63,54.63,0,0,1,17,5.55l.16.3A89.13,89.13,0,0,1,85.48,146.23Z"/><path d="M106.31,109.9c0,.24,0,.47.08.71,1.51,14.36-9.27,29.69-18.33,44-.77,1.21-1.51,2.42-2.23,3.62L91,147.29a120.78,120.78,0,0,0,6.58-16.73c.79-2.6,1.48-5.2,2-7.79a72.73,72.73,0,0,0,1.74-21A47.29,47.29,0,0,0,98.2,89.34,46,46,0,0,1,106.31,109.9Z"/><line x1="85.83" y1="158.18" x2="85.82" y2="158.19"/><path d="M63.52,194.28a2.4,2.4,0,0,1,0,.37c0,.58-.11,1-.33,1s-.45-.36-.58-.91a2.32,2.32,0,0,1-.07-.38c-.1-.74,0-1.38.29-1.41S63.42,193.53,63.52,194.28Z"/><path d="M64.84,194.1l0,.38c0,.57-.11,1-.33,1s-.45-.36-.59-.92c0-.12-.05-.24-.07-.37-.1-.75,0-1.39.3-1.42S64.74,193.35,64.84,194.1Z"/><rect x="58.16" y="198.27" width="12.23" height="0.5" transform="matrix(0.99, -0.13, 0.13, 0.99, -25.77, 10.28)"/><rect x="61.3" y="193.75" width="4.74" height="0.5" transform="translate(-25.18 10.16) rotate(-7.62)"/><rect x="59.4" y="198.75" width="10.6" height="5.93" transform="matrix(0.99, -0.13, 0.13, 0.99, -26.19, 10.37)"/></g><g class="cls-1"><rect x="405.88" y="49.63" width="0.64" height="7.86" transform="translate(306.03 450.85) rotate(-83.36)"/><rect x="404.28" y="52.98" width="3.38" height="5.17" transform="translate(303.84 452.38) rotate(-83.36)"/><path d="M405.27,50.2l-.17-.07,1.21-2.73h.07c.38.06.67.09,1.05.12h.07l.55,2.94-.18,0-.52-2.8c-.33,0-.6-.06-.93-.11Z"/><rect x="403.92" y="48.65" width="2.87" height="0.18" transform="translate(310.08 445.74) rotate(-83.36)"/><path d="M411.26,43.22l-2.42,4.4-.55,0a8.29,8.29,0,0,1-.86,0l-.53,0-.53-.07c-.29,0-.57-.11-.85-.18l-.53-.15-1.34-4.84a7,7,0,0,0,.94.58,7.58,7.58,0,0,0,1.84.67,8.63,8.63,0,0,0,.91.16l.92.06a7.66,7.66,0,0,0,1.95-.24A9.19,9.19,0,0,0,411.26,43.22Z"/><rect x="406.69" y="48.97" width="2.87" height="0.18" transform="translate(312.21 448.79) rotate(-83.36)"/><path d="M398.17,35.26c-.28-.45-.57-.9-.87-1.36-3.51-5.32-7.68-11-7.21-16.47l0-.27a17.39,17.39,0,0,1,2.93-7.82,17.73,17.73,0,0,0-1.13,4.72,27.22,27.22,0,0,0,.79,7.91c.23,1,.51,2,.83,2.93a44.6,44.6,0,0,0,2.59,6.28Z"/><line x1="398.17" y1="35.26" x2="398.17" y2="35.26"/><path d="M416.13,37.71l-3.07,4.54a11.21,11.21,0,0,1-1.8,1Z"/><path d="M403.65,42.33A9.81,9.81,0,0,1,402.12,41l-2-5.12Z"/><path d="M413.22,37.37l-3,6.19a7.66,7.66,0,0,1-1.95.24L409.79,37Z"/><path d="M401.86,30.76l1.22,5.43-2.92-.34-1.94-5.11a33.62,33.62,0,0,1,1.46-27.26l.06-.12a20.61,20.61,0,0,1,6.39-2.21l0,.08A42,42,0,0,0,401.86,30.76Z"/><path d="M406.43,43.58a7.58,7.58,0,0,1-1.84-.67l-1.51-6.72,3.44.4Z"/><path d="M414.06,1.27a33.3,33.3,0,0,1,.41,12.27c-.31,2.74-.8,5.55-1.31,8.34L409.79,37l-3.27-.38.18-15.46c.15-2.84.31-5.68.63-8.42A33.52,33.52,0,0,1,410.55.86c.59,0,1.17.06,1.77.13S413.49,1.16,414.06,1.27Z"/><path d="M419.2,33.18l-3.07,4.53-2.91-.34,2.44-5a42.05,42.05,0,0,0,2.66-29.71l0-.08A21,21,0,0,1,424,6.19l0,.12A33.67,33.67,0,0,1,419.2,33.18Z"/><path d="M430.21,21.82c0,.09,0,.18,0,.27-.78,5.4-6.16,10-10.8,14.38l-1.15,1.12,2.92-3.5a44.67,44.67,0,0,0,4-5.51c.54-.88,1-1.77,1.48-2.66a27.44,27.44,0,0,0,2.59-7.53,17.86,17.86,0,0,0,0-4.85A17.36,17.36,0,0,1,430.21,21.82Z"/><line x1="418.22" y1="37.59" x2="418.21" y2="37.59"/><path d="M406.69,48.73a.59.59,0,0,1,0,.14c-.05.21-.14.36-.22.35s-.13-.17-.13-.39a.71.71,0,0,1,0-.14c0-.29.14-.51.24-.49S406.72,48.45,406.69,48.73Z"/><path d="M407.19,48.79c0,.05,0,.1,0,.14-.05.21-.14.36-.22.35s-.13-.17-.13-.39a.66.66,0,0,1,0-.14c0-.29.14-.51.24-.5S407.22,48.5,407.19,48.79Z"/><rect x="404.26" y="50.26" width="4.62" height="0.19" transform="translate(8.55 -46.66) rotate(6.64)"/><rect x="405.87" y="48.55" width="1.79" height="0.19" transform="translate(8.35 -46.7) rotate(6.64)"/><rect x="404.43" y="50.44" width="4" height="2.24" transform="translate(8.69 -46.64) rotate(6.64)"/></g></g></g></svg>