<svg xmlns="http://www.w3.org/2000/svg" viewBox="0 0 71.1 79.7"><defs><style>.cls-1{fill:none;}.cls-2{fill:#68217a;}.cls-3{fill:#953dac;}.cls-4{fill:#822c98;}.cls-5{fill:#fefefe;}</style></defs><g id="Layer_2" data-name="Layer 2"><g id="Layer_1-2" data-name="Layer 1"><line class="cls-1" x1="1.02" y1="19.96" x2="1.01" y2="19.94"/><line class="cls-1" x1="1.06" y1="59.8" x2="1.01" y2="59.83"/><path class="cls-2" d="M70,59.8a7.6,7.6,0,0,1-2.82,2.81l-27.79,16a7.76,7.76,0,0,1-7.76,0l-27.79-16A7.68,7.68,0,0,1,1.06,59.8l14.47-8.35a23.14,23.14,0,0,0,40,0Z"/><path class="cls-3" d="M70.08,20,55.61,28.31A23.14,23.14,0,1,0,15.53,51.45L1.06,59.8A7.74,7.74,0,0,1,0,55.89V23.81a7.78,7.78,0,0,1,3.88-6.73L31.67,1a7.76,7.76,0,0,1,7.76,0l27.79,16A7.75,7.75,0,0,1,70.08,20Z"/><path class="cls-4" d="M71.1,23.81V55.89A7.77,7.77,0,0,1,70,59.8L55.57,51.45l-9.75-5.63L35.55,39.89l10.3-6,9.76-5.63L70.08,20A7.72,7.72,0,0,1,71.1,23.81Z"/><path class="cls-5" d="M45.82,45.82l9.75,5.63a23.14,23.14,0,1,1,0-23.14l-9.76,5.63a11.87,11.87,0,1,0,0,11.88Z"/><path class="cls-3" d="M45.85,33.94l-10.3,6L25.28,45.82A11.88,11.88,0,1,1,45.85,33.94Z"/><path class="cls-2" d="M45.82,45.82a11.89,11.89,0,0,1-20.54,0l10.27-5.93Z"/><path class="cls-5" d="M64.73,37.21V35.15H63.34l.5-2.91H61.29l-.49,2.91H58.15l.5-2.91H56.1l-.5,2.91H53.79v2.06h1.46l-.54,3.21H52.9v2.06h1.46l-.57,3.34H56.3l.58-3.34h2.67L59,45.82h2.51l.58-3.34h1.77V40.42H62.43L63,37.21ZM59.9,40.42H57.24l.55-3.21h2.66Z"/></g></g></svg>