<svg xmlns="http://www.w3.org/2000/svg" viewBox="0 0 118.24 43.46"><defs><style>.cls-1{fill:#5027d5;}</style></defs><g id="Layer_2" data-name="Layer 2"><g id="Layer_1-2" data-name="Layer 1"><path class="cls-1" d="M4,35.45a4,4,0,1,0,4,4A4,4,0,0,0,4,35.45Z"/><polygon class="cls-1" points="44.65 33.34 23.76 0 22.38 0 15.51 0 15.51 43.45 22.38 43.45 22.38 9.41 43.7 43.45 44.65 43.45 51.52 43.45 51.52 0 44.65 0 44.65 33.34"/><polygon class="cls-1" points="67.76 24.55 82.32 24.55 82.32 18.37 67.76 18.37 67.76 6.15 83.52 6.15 83.52 0.04 67.76 0.04 67.76 0 60.69 0 60.69 0.04 60.68 0.04 60.68 6.15 60.69 6.15 60.69 18.37 60.68 18.37 60.68 24.55 60.69 24.55 60.69 37.26 60.68 37.26 60.68 43.45 60.69 43.45 67.76 43.45 84.55 43.45 84.55 37.26 67.76 37.26 67.76 24.55"/><polygon class="cls-1" points="86.84 0 86.84 6.15 98.98 6.15 98.98 43.45 106.1 43.45 106.1 6.15 118.24 6.15 118.24 0 86.84 0"/></g></g></svg>