<svg xmlns="http://www.w3.org/2000/svg" viewBox="0 0 49.74 49.74"><defs><style>.cls-1{fill:#e68e5a;}</style></defs><g id="Layer_2" data-name="Layer 2"><g id="Layer_1-2" data-name="Layer 1"><path class="cls-1" d="M22.2,18.69v4h-5v2.14h5V39.51h2.14V24.86h6.89V22.72H24.34v-4A4.66,4.66,0,0,1,29,14h2.23V11.89H29A6.81,6.81,0,0,0,22.2,18.69Z"/><path class="cls-1" d="M24.87,0A24.87,24.87,0,1,0,49.74,24.87,24.9,24.9,0,0,0,24.87,0Zm0,47.59A22.73,22.73,0,1,1,47.6,24.87,22.75,22.75,0,0,1,24.87,47.59Z"/></g></g></svg>