<svg xmlns="http://www.w3.org/2000/svg" viewBox="0 0 219.56 76.08"><defs><style>.cls-1{fill:#e2e2e2;}.cls-2{fill:#3acefe;}.cls-3{fill:#16b9fe;}.cls-4{fill:#0057a1;}</style></defs><g id="Layer_2" data-name="Layer 2"><g id="Layer_1-2" data-name="Layer 1"><polygon class="cls-1" points="79.16 55.21 79.16 19.87 99.31 19.87 99.31 23.83 83.33 23.83 83.33 35.82 97.92 35.82 97.92 39.92 83.33 39.92 83.33 55.21 79.16 55.21"/><rect class="cls-1" x="104.28" y="19.82" width="4.33" height="35.4"/><rect class="cls-1" x="131.71" y="29.95" width="4.25" height="25.26"/><path class="cls-1" d="M131.71,43.69v8.08A9.57,9.57,0,0,1,123.05,56c-4.68-.52-7.91-2.8-8.66-8.06V30h4.25V43.69c-.28,5.34,1.48,8.27,5.58,8.46,4.68.26,7.57-4,7.49-8.46"/><path class="cls-1" d="M162.7,47.92V33.8h-4.1V30h4.49v-7h4.24v7h6V33.8h-6V47.92a3.34,3.34,0,0,0,1.88,3.32,4.74,4.74,0,0,0,4.38-.38v3.65c-.23.9-3.64,1.54-6.26.61C164.26,53.92,162.66,51.56,162.7,47.92Z"/><path class="cls-1" d="M144.58,47.92V33.8h-4.1V30H145v-7h4.24v7h6V33.8h-6V47.92a3.34,3.34,0,0,0,1.88,3.32,4.74,4.74,0,0,0,4.38-.38v3.65c-.23.9-3.64,1.54-6.26.61C146.14,53.92,144.54,51.56,144.58,47.92Z"/><path class="cls-1" d="M188.63,52.37c-5.45-.32-7.93-3.48-8.29-8.68h20.15c-.12-8.93-4.08-13.66-11.79-14.28-4.72,0-8.27,1.87-10.6,5.59a14.38,14.38,0,0,0-2,9.22c.77,6.88,4.66,10.93,12.14,11.77,5.71.11,9.21-2.21,11.08-6.32l-3.54-1.75A7.85,7.85,0,0,1,188.63,52.37ZM188,33c4.12,0,6.87,2,7.64,6.89H180.34C181.46,35.26,184.09,33.1,188,33Z"/><path class="cls-1" d="M205,55.21h4.26V39.93c1.92-5.36,5.31-7.29,10.33-5.48V30c-4.46-1.28-7.95-.12-10.33,3.85V30H205Z"/><polygon class="cls-2" points="61.42 0 11.73 49.69 0 37.96 37.96 0 61.42 0"/><polygon class="cls-2" points="61.2 35.02 37.75 35.02 28.91 43.86 40.63 55.59 61.2 35.02"/><rect class="cls-3" x="20.88" y="47.18" width="16.27" height="16.58" transform="translate(-30.73 36.77) rotate(-45)"/><polygon class="cls-4" points="40.63 55.59 29.13 67.09 38.12 76.08 61.13 76.08 40.63 55.59"/></g></g></svg>