<svg xmlns="http://www.w3.org/2000/svg" viewBox="0 0 149 130.38"><defs><style>.cls-1{fill:#e68e5a;}</style></defs><g id="Layer_2" data-name="Layer 2"><g id="Layer_1-2" data-name="Layer 1"><polygon points="149 0 149 37.25 111.75 37.25 111.75 130.38 74.5 130.38 37.25 65.19 37.25 130.38 0 130.38 0 0 149 0"/><path class="cls-1" d="M27.35,8.38V29h-5L14,16.27V29h-5V8.38h5l8.39,12.76V8.38Z"/><path class="cls-1" d="M40.71,24.48c3.22,0,5.32-2.33,5.32-5.86s-2.1-5.87-5.32-5.87S35.37,15,35.37,18.62,37.44,24.48,40.71,24.48Zm0,4.48A10.14,10.14,0,0,1,30.34,18.62,10.12,10.12,0,0,1,40.71,8.3,10.06,10.06,0,0,1,51,18.62,10.1,10.1,0,0,1,40.71,29Z"/><path class="cls-1" d="M62.14,12.55H59v5.1h3.1c1.88,0,2.76-1,2.76-2.58S64,12.55,62.14,12.55Zm.3-4.17c5,0,7.56,2.91,7.56,6.48a6,6,0,0,1-4.57,5.95L70.18,29H64.52l-4.28-7.77H59V29H54V8.38Z"/><path class="cls-1" d="M73.14,8.38h5.92l5.77,14.25L90.55,8.38h5.89V29h-5V16.62L86.83,29h-4L78.15,16.59V29h-5Z"/><path class="cls-1" d="M109,13.92l-2.52,7.54h5.07Zm3.84,11.41h-7.68L104,29H98.7l7.44-20.58H112L119.4,29h-5.31Z"/><path class="cls-1" d="M140.06,8.38V29h-5l-8.38-12.69V29h-5V8.38h5l8.38,12.76V8.38Z"/><path class="cls-1" d="M8.94,33H24.82v4H19.38V53.53h-5V37H8.94Z"/><path class="cls-1" d="M39.91,37H32.33v4.15H39V45h-6.7v4.51h7.58v4H27.33V33H39.91Z"/><path class="cls-1" d="M52.62,33c4.77,0,8.38,2.69,9.52,7H56.77a4.43,4.43,0,0,0-4.21-2.58c-3,0-5.06,2.23-5.06,5.78S49.56,49,52.56,49a4.44,4.44,0,0,0,4.21-2.57h5.37c-1.14,4.35-4.75,7-9.52,7-5.92,0-10.09-4.2-10.09-10.2S46.7,33,52.62,33Z"/><path class="cls-1" d="M78.21,45.08H70.44v8.45h-5V33h5v8h7.77V33h5V53.53h-5Z"/></g></g></svg>