<svg xmlns="http://www.w3.org/2000/svg" viewBox="0 0 284.8 249.2"><defs><style>.cls-1{fill:#5ca1e5;}</style></defs><g id="Layer_2" data-name="Layer 2"><g id="Layer_1-2" data-name="Layer 1"><polygon class="cls-1" points="284.8 0 284.8 71.2 213.6 71.2 213.6 249.2 142.4 249.2 71.2 124.6 71.2 249.2 0 249.2 0 0 284.8 0"/><path d="M52.27,16V55.36H42.69l-16-24.26V55.36H17.08V16h9.59l16,24.38V16Z"/><path d="M77.82,46.79C84,46.79,88,42.34,88,35.58S84,24.37,77.82,24.37,67.6,28.71,67.6,35.58,71.56,46.79,77.82,46.79Zm0,8.57C66.89,55.36,58,47.17,58,35.58s8.9-19.72,19.83-19.72S97.55,24,97.55,35.58A19.32,19.32,0,0,1,77.82,55.36Z"/><path d="M118.78,24h-5.94v9.75h5.94c3.59,0,5.27-1.85,5.27-4.93C124.05,25.89,122.37,24,118.78,24Zm.56-8c9.64,0,14.46,5.55,14.46,12.39,0,4.93-2.69,9.58-8.74,11.37l9.07,15.58H123.32l-8.18-14.85h-2.3V55.36h-9.58V16Z"/><path d="M139.79,16h11.32l11,27.24L173.08,16h11.26V55.36h-9.58V31.77L166,55.36h-7.73l-8.86-23.65V55.36h-9.58Z"/><path d="M208.38,26.61,203.56,41h9.69Zm7.34,21.8H201l-2.36,7h-10L202.89,16H214l14.23,39.34H218.07Z"/><path d="M267.72,16V55.36h-9.59l-16-24.26V55.36h-9.58V16h9.58l16,24.38V16Z"/><path d="M17.08,63.08H47.44v7.66H37v31.58H27.48V70.74H17.08Z"/><path d="M76.28,70.74H61.8v7.94H74.6v7.37H61.8v8.61H76.28v7.66h-24V63.08h24Z"/><path d="M100.58,63.08c9.12,0,16,5.14,18.2,13.44H108.5a8.44,8.44,0,0,0-8-4.91c-5.74,0-9.67,4.26-9.67,11s3.93,11,9.67,11a8.44,8.44,0,0,0,8-4.92h10.28c-2.19,8.31-9.08,13.39-18.2,13.39-11.31,0-19.29-8-19.29-19.51S89.27,63.08,100.58,63.08Z"/><path d="M149.5,86.17H134.63v16.15h-9.56V63.08h9.56V78.45H149.5V63.08h9.56v39.24H149.5Z"/></g></g></svg>