<svg xmlns="http://www.w3.org/2000/svg" viewBox="0 0 126.31 94.55"><defs><style>.cls-1{fill:#e68e5a;}</style></defs><g id="Layer_2" data-name="Layer 2"><g id="Layer_1-2" data-name="Layer 1"><path class="cls-1" d="M104.24,21.54a4.62,4.62,0,0,0-4.69,4.69v16H85.7v-.69q0-7.69,0-15.39A4.4,4.4,0,0,0,85,23.65a4.66,4.66,0,0,0-8.58,2.57q0,7.59,0,15.17c0,4.68,0,9.37,0,14A37.71,37.71,0,0,1,75.1,66.23a25,25,0,0,1-8.63,13.45A25.52,25.52,0,0,1,47.29,85a25.86,25.86,0,0,1-13-5.29A29.36,29.36,0,0,1,28,73c-3.21-4.62-6.48-9.19-9.73-13.79S11.7,49.79,8.37,45.11a4.61,4.61,0,0,0-6.45-1,4.67,4.67,0,0,0-1.11,6.4q7.7,10.9,15.4,21.79c2,2.85,4,5.75,6.09,8.52a34.16,34.16,0,0,0,11.85,9.79,35.62,35.62,0,0,0,20.08,3.69,33.78,33.78,0,0,0,9.62-2.44A33.24,33.24,0,0,0,77.3,82c5.24-6.5,7.63-14.09,8.26-22.3.19-2.49.11-5,.16-7.52,0-.2,0-.4,0-.62h13.8V67.42a4.87,4.87,0,0,0,.75,2.63,4.66,4.66,0,0,0,8.58-2.58v-16q0-12.6,0-25.21A4.64,4.64,0,0,0,104.24,21.54Z"/><path class="cls-1" d="M18.63,13.39l9.92,14.07,8.58,12.16c2.26,3.2,4.51,6.41,6.79,9.59a4.35,4.35,0,0,0,3.76,1.85,4.68,4.68,0,0,0,3.76-7.35c-2-2.85-4-5.68-6-8.51l-12-17q-4.57-6.48-9.16-13a4.73,4.73,0,0,0-3.78-1.95,4.6,4.6,0,0,0-4.09,2.47,4.39,4.39,0,0,0,.18,4.7C17.2,11.44,17.93,12.41,18.63,13.39Z"/><path class="cls-1" d="M48.53,24.57q5.88,8.3,11.76,16.59A4.28,4.28,0,0,0,64.67,43a4.63,4.63,0,0,0,3.11-7.34c-2.13-3.07-4.3-6.1-6.46-9.15q-4.56-6.43-9.11-12.86c-2.78-3.93-5.54-7.87-8.32-11.79A4.22,4.22,0,0,0,40.78,0c-2.2,0-3.51.67-4.4,1.9a4.78,4.78,0,0,0,.21,5.8Q42.58,16.13,48.53,24.57Z"/><path class="cls-1" d="M8.67,30.51,29.09,59.4a4.67,4.67,0,0,0,7.81-.2,4.37,4.37,0,0,0-.15-5.09c-2.7-3.89-5.46-7.75-8.2-11.63l-3.72-5.26-10-14.16a4.93,4.93,0,0,0-4.44-2.31,4.33,4.33,0,0,0-3.7,2.38,4.49,4.49,0,0,0,.15,4.77C7.42,28.79,8.06,29.64,8.67,30.51Z"/><path class="cls-1" d="M126.3,39a4.67,4.67,0,1,0-9.34.27q0,14.09,0,28.17a5.28,5.28,0,0,0,.2,1.37,4.65,4.65,0,0,0,9.14-1.2c0-4.76,0-9.52,0-14.28S126.31,43.73,126.3,39Z"/><path class="cls-1" d="M121.57,30.82a4.64,4.64,0,0,0,4.73-4.49,4.67,4.67,0,1,0-9.33-.24A4.61,4.61,0,0,0,121.57,30.82Z"/></g></g></svg>