<svg xmlns="http://www.w3.org/2000/svg" viewBox="0 0 49.74 49.74"><defs><style>.cls-1{fill:#e68e5a;}</style></defs><g id="Layer_2" data-name="Layer 2"><g id="Layer_1-2" data-name="Layer 1"><path class="cls-1" d="M24.87,0A24.87,24.87,0,1,0,49.74,24.87,24.9,24.9,0,0,0,24.87,0Zm0,47.59A22.73,22.73,0,1,1,47.6,24.87,22.75,22.75,0,0,1,24.87,47.59Z"/><path class="cls-1" d="M29.47,11.89h-9.2a8.39,8.39,0,0,0-8.38,8.37v9.21a8.39,8.39,0,0,0,8.38,8.38h9.2a8.39,8.39,0,0,0,8.38-8.38V20.26A8.39,8.39,0,0,0,29.47,11.89ZM35.7,29.47a6.23,6.23,0,0,1-6.23,6.23h-9.2A6.23,6.23,0,0,1,14,29.47V20.26A6.23,6.23,0,0,1,20.27,14h9.2a6.23,6.23,0,0,1,6.23,6.22Z"/><path class="cls-1" d="M24.87,19a5.88,5.88,0,1,0,5.88,5.88A5.89,5.89,0,0,0,24.87,19Zm0,9.61a3.73,3.73,0,1,1,3.73-3.73A3.73,3.73,0,0,1,24.87,28.6Z"/><path class="cls-1" d="M31.41,17.2a1.13,1.13,0,1,0,1.13,1.13A1.13,1.13,0,0,0,31.41,17.2Z"/></g></g></svg>