<svg xmlns="http://www.w3.org/2000/svg" viewBox="0 0 49.74 49.74"><defs><style>.cls-1{fill:#e68e5a;}</style></defs><g id="Layer_2" data-name="Layer 2"><g id="Layer_1-2" data-name="Layer 1"><path class="cls-1" d="M24.87,0A24.87,24.87,0,1,0,49.74,24.87,24.9,24.9,0,0,0,24.87,0Zm0,47.59A22.73,22.73,0,1,1,47.6,24.87,22.75,22.75,0,0,1,24.87,47.59Z"/><path class="cls-1" d="M26.06,22.76a6.67,6.67,0,0,1,1.23-1.15,4.91,4.91,0,0,1,2.18-.79,7.56,7.56,0,0,1,3.07.17,4.49,4.49,0,0,1,3.05,2.88,10.78,10.78,0,0,1,.63,3.94c0,2.55,0,5.1,0,7.66a.75.75,0,0,1-.84.85H32.13a.75.75,0,0,1-.84-.86V28.27A5.51,5.51,0,0,0,31,26.38a2.42,2.42,0,0,0-4.07-.64,4.21,4.21,0,0,0-.84,2.6c0,2.34,0,4.68,0,7,0,.7-.25,1-.94,1h-3c-.61,0-.88-.28-.88-.9V21.85c0-.61.28-.88.89-.88h3.1a.76.76,0,0,1,.85.85C26.07,22.13,26.06,22.44,26.06,22.76Z"/><path class="cls-1" d="M19,28.65V35.3c0,.76-.26,1-1,1H15.16c-.68,0-1-.29-1-1V21.94c0-.69.28-1,1-1H18.1c.65,0,.94.28.94.94Z"/><path class="cls-1" d="M16.63,19.66a3.12,3.12,0,1,1,3.12-3.12A3.11,3.11,0,0,1,16.63,19.66Z"/></g></g></svg>