<svg xmlns="http://www.w3.org/2000/svg" viewBox="0 0 546.67 36.1"><defs><style>.cls-1{fill:#e68e5a;}</style></defs><g id="Layer_2" data-name="Layer 2"><g id="Layer_1-2" data-name="Layer 1"><path class="cls-1" d="M546.67,36.1H495.26c-9.34-2.55-18.87-4.74-28.45-6.73-22.09-4.54-44.53-8-67.06-10.71s-45.19-4.78-67.89-6.26S286.4,10,263.62,9.6s-45.59-.38-68.38.14S149.65,11.28,126.91,13s-45.45,4-68,7.56c-11.26,1.81-22.48,3.93-33.51,6.78A164.67,164.67,0,0,0,9.1,32.34a82.19,82.19,0,0,0-7.83,3.39l-.73.37H0c.37-.22.75-.43,1.13-.63a82.1,82.1,0,0,1,7.76-3.68,163,163,0,0,1,16.23-5.63c11-3.24,22.17-5.76,33.41-8,22.48-4.36,45.19-7.45,68-9.93S172.08,4,195,2.7,240.72.58,263.62.2s45.86-.23,68.8.49,45.88,2,68.79,4,45.8,4.71,68.63,8.59c11.42,2,22.82,4.23,34.19,7.07,5.69,1.43,11.38,3,17.07,4.85A130.35,130.35,0,0,1,538.27,32Z"/></g></g></svg>