<svg xmlns="http://www.w3.org/2000/svg" viewBox="0 0 212.15 60.17"><g id="Layer_2" data-name="Layer 2"><g id="Layer_1-2" data-name="Layer 1"><polygon points="68.77 0 68.77 17.19 51.58 17.19 51.58 60.17 34.38 60.17 17.19 30.09 17.19 60.17 0 60.17 0 0 68.77 0"/><path d="M103.58,8.38V28.21H98.75L90.68,16V28.21H85.85V8.38h4.83l8.07,12.29V8.38Z"/><path d="M116.46,23.89c3.1,0,5.12-2.24,5.12-5.65s-2-5.65-5.12-5.65-5.15,2.19-5.15,5.65S113.3,23.89,116.46,23.89Zm0,4.32a9.79,9.79,0,0,1-10-10,10,10,0,0,1,19.94,0A9.74,9.74,0,0,1,116.46,28.21Z"/><path d="M137.1,12.39h-3v4.92h3c1.81,0,2.65-.93,2.65-2.49S138.91,12.39,137.1,12.39Zm.28-4c4.86,0,7.29,2.8,7.29,6.25a5.78,5.78,0,0,1-4.41,5.73l4.58,7.85h-5.45l-4.13-7.49h-1.15v7.49h-4.83V8.38Z"/><path d="M147.69,8.38h5.7L159,22.11l5.51-13.73h5.68V28.21h-4.83V16.32l-4.44,11.89H157l-4.46-11.92V28.21h-4.83Z"/><path d="M182.25,13.72,179.82,21h4.89Zm3.7,11h-7.4l-1.18,3.5h-5.06l7.17-19.83h5.59l7.18,19.83h-5.11Z"/><path d="M212.15,8.38V28.21h-4.82L199.25,16V28.21h-4.83V8.38h4.83l8.08,12.29V8.38Z"/><path d="M85.85,32.1h15.29V36H95.9V51.87H91.09V36H85.85Z"/><path d="M115.68,36h-7.3v4h6.45v3.72h-6.45V48h7.3v3.86H103.56V32.1h12.12Z"/><path d="M127.92,32.1c4.6,0,8.07,2.59,9.18,6.77h-5.18a4.26,4.26,0,0,0-4-2.47C125,36.4,123,38.54,123,42s2,5.56,4.88,5.56a4.27,4.27,0,0,0,4-2.48h5.18c-1.11,4.19-4.58,6.75-9.18,6.75-5.7,0-9.72-4-9.72-9.83S122.22,32.1,127.92,32.1Z"/><path d="M152.58,43.73h-7.49v8.14h-4.82V32.1h4.82v7.75h7.49V32.1h4.82V51.87h-4.82Z"/></g></g></svg>