<svg xmlns="http://www.w3.org/2000/svg" viewBox="0 0 387.9 339.41"><defs><style>.cls-1{fill:#fff;}</style></defs><g id="Layer_2" data-name="Layer 2"><g id="Layer_1-2" data-name="Layer 1"><polygon class="cls-1" points="387.9 0 387.9 96.97 290.93 96.97 290.93 339.41 193.95 339.41 96.97 169.71 96.97 339.41 0 339.41 0 0 387.9 0"/><path d="M71.2,21.83V75.4H58.15l-21.83-33v33h-13V21.83H36.32L58.15,55V21.83Z"/><path d="M106,63.73c8.39,0,13.85-6.06,13.85-15.27S114.38,33.2,106,33.2,92.08,39.11,92.08,48.46,97.46,63.73,106,63.73Zm0,11.67c-14.89,0-27-11.15-27-26.94S91.1,21.6,106,21.6s26.87,11.07,26.87,26.86S120.89,75.4,106,75.4Z"/><path d="M161.78,32.66h-8.09V45.94h8.09c4.89,0,7.18-2.52,7.18-6.71C169,35.26,166.67,32.66,161.78,32.66Zm.77-10.83c13.12,0,19.69,7.55,19.69,16.86,0,6.72-3.67,13.05-11.91,15.49L182.69,75.4H168L156.82,55.18h-3.13V75.4H140.64V21.83Z"/><path d="M190.4,21.83h15.42l15,37.09,14.88-37.09h15.34V75.4H238V43.27L226,75.4H215.51L203.45,43.19V75.4h-13Z"/><path d="M283.81,36.25l-6.56,19.61h13.2Zm10,29.69h-20l-3.2,9.46H257l19.38-53.57h15.11L310.83,75.4H297Z"/><path d="M364.63,21.83V75.4H351.58l-21.83-33v33H316.7V21.83h13.05L351.58,55V21.83Z"/><path d="M23.27,85.92H64.61V96.35H50.45v43h-13v-43H23.27Z"/><path d="M103.89,96.35H84.17v10.81h17.44v10H84.17v11.72h19.72v10.43H71.15V85.92h32.74Z"/><path d="M137,85.92c12.43,0,21.81,7,24.78,18.31h-14a11.5,11.5,0,0,0-10.94-6.7c-7.82,0-13.17,5.8-13.17,15s5.35,15,13.17,15a11.52,11.52,0,0,0,10.94-6.7h14c-3,11.31-12.35,18.23-24.78,18.23-15.41,0-26.27-10.94-26.27-26.57S121.58,85.92,137,85.92Z"/><path d="M203.62,117.36H183.37v22h-13V85.92h13v20.93h20.25V85.92h13v53.44h-13Z"/></g></g></svg>