<svg xmlns="http://www.w3.org/2000/svg" viewBox="0 0 931.81 278.58"><defs><style>.cls-1{opacity:0.3;}.cls-2{fill:#e68e5a;}</style></defs><g id="Layer_2" data-name="Layer 2"><g id="Layer_1-2" data-name="Layer 1"><g class="cls-1"><path class="cls-2" d="M88.22,278.58a10.44,10.44,0,0,1-4.75-1.25c-2.79-1.22-5.11-3.73-6.88-7.44s-3.28-9.51-4.59-17.47S69.33,233.25,67.94,219c-2.27-23.16-4.21-48.45-5.76-75.17-1.35-22.36-2.69-42.24-4-59.08-1.32-17.36-2.05-24-2.45-26.23-.87,1.4-3.06,5.65-8.48,17.65C33,107.81,22.93,135.7,17.43,159.06c-3.49,15-5.26,28.74-5.26,40.94a101.82,101.82,0,0,0,1,15.63,48.05,48.05,0,0,0,3.05,11.12c1,2.49,1.13,3.23,1.13,3.57a.61.61,0,0,1-.59.69H16.6c.23.4.55.93,1,1.63s.82,1.21,1.21,1.7a3.92,3.92,0,0,1,1.11,2.2.7.7,0,0,1-.7.79c-.57,0-1.47-.5-5-6.5a18.91,18.91,0,0,0-2.15-3.15c.06.2.14.46.26.79a6,6,0,0,1,.53,1.86.56.56,0,0,1-.55.59c-.36,0-.65,0-2.21-3.47.25.68.49,1.29.73,1.83,1.4,3,1.58,3.8,1.58,4.18a.57.57,0,0,1-.59.59h-.17l-.19-.1c-1.49-1.17-3.07-4.77-4.84-11a165.12,165.12,0,0,1-4.29-20.59,73.69,73.69,0,0,0-1.49-8.71C.34,193.44,0,192.08,0,183.3c0-5,.15-10.21.45-15.53C1.31,150.49,10,122,26.28,83.16,30.5,73.06,35.23,62.9,40.34,53s9-16.54,11.51-19.6a19.64,19.64,0,0,1,5.53-3.76,6,6,0,0,1,2.36-.79,4.46,4.46,0,0,1,2.5,1.3,20.94,20.94,0,0,1,5,6.28c3.24,6.24,6.12,29.07,8.8,69.77.95,14.46,1.81,26,2.53,34.38.27,3.45.61,8.95,1.05,16.82,1.15,19,2.59,37.77,4.27,55.64,2.59,28.2,4,34.26,4.62,35.2.2-.14.73-.74,1.42-3.32,1.34-5.61,3.7-19.54,7-41.4,1.21-8.21,1.92-12.58,2.16-13.34l0-.1a40.49,40.49,0,0,0,.61-4.87c.32-3.16.69-5.92,1.12-8.2.36-2,1-6.11,1.79-12.15,2.11-16.36,3.78-27.45,5-32.94,1.25-5.73,3.29-17.88,6-36.1.77-4.51,2.76-13.5,5.93-26.73,1.88-8,3.05-12.35,3.57-13.3A1.73,1.73,0,0,1,124,55a.49.49,0,0,0,0-.13,4.62,4.62,0,0,0-.1-.84,6,6,0,0,1-.1-1c0-1,.6-1.09.79-1.09l.15,0a9.83,9.83,0,0,0,1-1.87q.25-.55.54-1.23a.77.77,0,0,1-.44.14.6.6,0,0,1-.59-.69,5.72,5.72,0,0,1,.76-2.43c.31-.58.55-.9.93-.9s.51.21.6.61c.19-.5.38-1,.57-1.57a100.52,100.52,0,0,1,8-18.33c2.6-4.34,5.42-7.28,8.38-8.74a2.84,2.84,0,0,1,1.21-.5.56.56,0,0,1,.6.55c0,.27,0,.47-2.46,2.61C138.2,24.66,133.1,36,128.61,53.2l-.05.18c.17-.53.34-1.12.54-1.78,1.55-5.41,3.09-10.09,4.58-13.91,2.18-5.56,2.95-6,3.54-6a.76.76,0,0,1,.75.84,2.84,2.84,0,0,1-.46,1.34,3.47,3.47,0,0,0-.39,1.4.58.58,0,0,0,0,.23,1.25,1.25,0,0,1,.12.56,13.77,13.77,0,0,1-1,3.95,86.87,86.87,0,0,0-2.92,9.84c-.92,3.86-1.58,6.46-2,7.74h0l.11-.08.08-.1a1.59,1.59,0,0,1,1-.52c.27,0,.6.15.6.89a65.06,65.06,0,0,1-1.21,7.5c-.36,1.81-1,5.59-1.93,11.22-.56,3.23-1,6-1.29,8.33L126.88,97l-.09.53c.24-1.16.52-2.58.85-4.32,2-11,3.58-17.44,4.66-19.75.27-.58.46-.93.85-.93.64,0,.64.79.64,1.14-.07,1.68-1.06,8.38-3,20.5-5,30.52-9.53,59.65-13.56,86.58-5.25,35.22-8.94,57.94-11,67.52-3.27,15.11-6.83,24-10.87,27.18C92.74,277.52,90.34,278.58,88.22,278.58ZM56,57h.34l.12.31c.19.49.78,2,2.72,27.38,1.29,16.85,2.62,36.74,4,59.11,1.55,26.7,3.48,52,5.76,75.13,1.39,14.24,2.75,25.47,4,33.37s2.81,13.66,4.5,17.21,3.82,5.83,6.42,7a9.47,9.47,0,0,0,4.32,1.16c1.89,0,4.08-1,6.5-2.93,3.8-3,7.34-11.94,10.51-26.6,2-9.56,5.74-32.26,11-67.47,4-26.93,8.6-56.06,13.57-86.59,1.53-9.41,2.49-15.66,2.86-18.66-1,3-2.36,9.1-4,18-1.91,10.1-2.22,10.1-2.77,10.1s-.64-.83-.64-1.1a43.12,43.12,0,0,1,.7-5.54l1.84-12.17c.3-2.31.74-5.13,1.29-8.36.93-5.64,1.58-9.43,1.94-11.25.66-3.44,1.05-5.72,1.16-6.82a1,1,0,0,1-.24.17c-.67.57-.94.68-1.18.68a.56.56,0,0,1-.54-.64,4.06,4.06,0,0,1,.22-1c.36-1.21,1-3.84,2-7.82a90.12,90.12,0,0,1,2.95-10,12.28,12.28,0,0,0,1-3.6.22.22,0,0,0,0-.12,1.43,1.43,0,0,1-.13-.67,3.71,3.71,0,0,1,.24-1.24c-.41.8-1,2.06-1.77,4-1.48,3.79-3,8.44-4.55,13.82-2,6.82-2.38,6.82-2.86,6.82-.21,0-.55-.09-.55-.74a31.9,31.9,0,0,1,1-5c4.5-17.25,9.64-28.68,15.29-34a24.62,24.62,0,0,0-6.06,7.18c-2.54,4.22-5.19,10.33-7.89,18.14-.92,2.62-1.73,4.69-2.4,6.16-1,2.11-1.34,2.48-1.79,2.48h0v0a5,5,0,0,0,.09.83,6.49,6.49,0,0,1,.11,1c0,.27,0,1.09-.65,1.09h0a2.9,2.9,0,0,0-.24.35c-.32.58-1.19,3.32-3.47,13-3.17,13.21-5.15,22.18-5.91,26.66-2.77,18.23-4.81,30.4-6.07,36.15-1.18,5.47-2.85,16.52-5,32.86-.83,6.06-1.43,10.16-1.79,12.2-.43,2.26-.8,5-1.12,8.12-.43,4.34-.6,5-.7,5.21-.17.57-.67,3.36-2.11,13.15-3.3,21.89-5.66,35.85-7,41.49-.77,2.89-1.51,4.11-2.47,4.11s-2.19,0-5.52-36.13c-1.68-17.89-3.12-36.62-4.27-55.69-.44-7.86-.78-13.35-1-16.79-.73-8.35-1.58-19.92-2.54-34.4-2.63-40-5.56-63.34-8.69-69.38a19.7,19.7,0,0,0-4.76-6C60.47,30,60,29.82,59.74,29.82a5.16,5.16,0,0,0-1.92.69A18.7,18.7,0,0,0,52.59,34c-2.45,3-6.29,9.51-11.37,19.39s-9.81,20-14,30.11C11,122.3,2.29,150.66,1.44,167.82,1.14,173.13,1,178.33,1,183.3c0,7.15.26,9,.41,9.44.42.21.79,1.52,1.92,9.48q.86,5.76,1.94,11a11.37,11.37,0,0,1-.09-1.31c0-.83.25-1.24.74-1.24s.81.59,1,1.23c.24.83.7,2.94,1.36,6.27a44.61,44.61,0,0,0,2.62,8.67L11,227a.65.65,0,0,1,.64-.69c.56,0,1.36.49,3.46,4q.15.27.3.51a2.33,2.33,0,0,1-.33-1,.54.54,0,0,1,.54-.59.9.9,0,0,1,.56.23c-.15-.49-.41-1.23-.87-2.34a49.45,49.45,0,0,1-3.11-11.34,103.7,103.7,0,0,1-1-15.78c0-12.27,1.78-26.12,5.28-41.17C22,135.41,32,107.46,46.37,75.74,54.85,57,55.47,57,56,57ZM17.75,234.56c.33.48.6.83.81,1.09a7.87,7.87,0,0,0-.51-.7ZM6.29,213.4a39.54,39.54,0,0,0,.87,4.13C6.8,215.74,6.51,214.36,6.29,213.4Zm66.77,31.43c-.57,0-.83-.7-1-1.35a4.63,4.63,0,0,1-.22-1.13.62.62,0,0,1,.59-.7,1.13,1.13,0,0,1,.75.4,2.41,2.41,0,0,1,.64,1.59C73.8,244.62,73.4,244.83,73.06,244.83Zm-.75-4.28c-.69,0-.69-.94-.69-1.93s.07-1.69.69-1.69c.41,0,.54.4.62.63a5.07,5.07,0,0,1,.18,1.36C73.11,239.45,73.11,240.55,72.31,240.55ZM71.62,235c-.62,0-.64-.6-.64-2.49s0-2.48.64-2.48c.42,0,.54.41.62.71a8.44,8.44,0,0,1,.17,1.77,8.29,8.29,0,0,1-.16,1.69C72.16,234.61,72.05,235,71.62,235Zm-.7-6.46c-.63,0-.69-.69-.69-2.49s.06-2.48.69-2.48.75.79.75,2.48S71.59,228.58,70.92,228.58ZM70.43,223c-1.1,0-1.1-1.66-1.1-2.29,0-1.29.06-2.28.8-2.28.43,0,.61.45.75.81a7.52,7.52,0,0,1,.44,2.32C71.32,222.76,70.83,223,70.43,223Zm-.55-8.67h-1l-.15-3.73c0-1-.11-2-.22-3a10.53,10.53,0,0,0-.35-1.89,3.07,3.07,0,0,1-.23-.93.6.6,0,0,1,.6-.64c1.47,0,1.63,2.38,1.63,4.17C70.17,208.9,70.08,210.86,69.88,214.34ZM5.71,210C5,210,5,209,5,208.5s.08-1.24.69-1.24c.44,0,.62.46.71.68a2.52,2.52,0,0,1,.19.91C6.48,209.84,6,210,5.71,210Zm59.4-63.77c-.59,0-.6-.38-.65-2.82,0-1.25-.1-2.63-.19-4.1s-.21-2.72-.33-3.76-.17-1.78-.17-2.24c0-.23,0-.94.59-.94.42,0,.58.37.91,1.21s.63,2.93.63,6l-.05,2C65.68,146.22,65.68,146.22,65.11,146.22Zm-.7-16.6c-.69,0-.69-.93-.69-1.54s0-1.54.69-1.54.79,1.12.79,1.54S65.2,129.62,64.41,129.62Zm-.26-.86Z"/><path class="cls-2" d="M152,231.11a25.09,25.09,0,0,1-4.46-.41,21,21,0,0,1-14.07-10.45,38.22,38.22,0,0,1-4.68-19.16A56,56,0,0,1,135.14,176a51.91,51.91,0,0,1,6.78-9.65,44,44,0,0,1,8.25-7.44,39.73,39.73,0,0,1,5.1-2.58c3-1.23,5.15-1.83,6.46-1.83,1,0,1.09.56,1.09.8v.08l0,.19a1.73,1.73,0,0,0,.33,0c.16,0,.73-.06,2.61-.35l3.47-.52L166,156.21c-.95.44-1.6.75-2,1a25.77,25.77,0,0,0,3-.47l.15,0,.15.07a14,14,0,0,0,2.11.76A44.65,44.65,0,0,0,175,159h.15c0-.42.07-1.29.79-1.29a.85.85,0,0,1,.58.24A26.82,26.82,0,0,0,179.9,159c5,1.34,8.24,2,9.66,2a4.53,4.53,0,0,1,3.17,1.23l.12.1c0-1,0-2,.05-3,0-14.51.45-14.51,1.13-14.51h.12l.15.05c.16.08.37.24,1,1.21a3,3,0,0,0,.84,1,.92.92,0,0,0,.14-.22c.18-.38.44-.81.9-.81l.12,0c.41.1.61.58.75,1,.24.75.44,1.38.62,1.9-.09-.47-.2-1-.34-1.54a6.54,6.54,0,0,1-.31-1.81c0-.73.46-.79.6-.79.48,0,.78.51,1.15,1.37a15.54,15.54,0,0,1,.77,2.44c1,3.41,1.54,4.27,1.76,4.48a14.72,14.72,0,0,0,.72-1.33c.48-1,1.05-2.08,1.71-3.41,3.33-6.87,7.21-10.36,11.53-10.36a11.84,11.84,0,0,1,6.85,2.58,14.23,14.23,0,0,1,3.71,3.48,56.19,56.19,0,0,1,4,6.88,53.67,53.67,0,0,0,6.06,9.23c2.43,2.89,3.83,3.57,4.58,3.63h.07c1-4.87,2.1-9.51,3.14-13.8,2.79-11.52,3.78-13.59,4.29-14.13l.12-.1a1.5,1.5,0,0,0,.74-1.51,2.4,2.4,0,0,1,1-2.25,1.06,1.06,0,0,1,.62-.23c.12,0,.69,0,.69.89a4.46,4.46,0,0,1-.16,1.07,30.31,30.31,0,0,0-1,5.84,2.31,2.31,0,0,0,.06.62l.09-.08a.39.39,0,0,0,.11-.32c0-.87.57-.91.69-.91a.7.7,0,0,1,.52.22,1,1,0,0,1,.22.77,30.78,30.78,0,0,1-.4,4.15c-.13.74-.25,1.43-.37,2,.15-.64.29-1.32.43-2,.39-1.94.71-3.36,1-4.34.42-1.48.59-1.85,1.05-1.85s.59.71.59,1a20.87,20.87,0,0,1-.6,4.29,73.66,73.66,0,0,0-1.28,14.6c0,3.78.22,5.09.41,5.52a3.17,3.17,0,0,1,.48,1.49,1.28,1.28,0,0,1-.67,1.17.6.6,0,0,0-.18.52.94.94,0,0,0,.1.38l0,.07c.45,1.46.67,4.42.67,9a98.77,98.77,0,0,1-.45,10.55,41.65,41.65,0,0,0-.39,4.71,2.89,2.89,0,0,0,.15,1.19c.18-.05.75-.35,1.91-2.2,1.46-2.25,6.17-11.38,14-27.14,6.15-12.42,10.79-21.17,13.78-26s5.74-8,8.18-9.44a11.52,11.52,0,0,1,6.16-2.4c2.91,0,5.23,2.59,6.89,7.7a22.41,22.41,0,0,1,.87,7.06,154.88,154.88,0,0,1-1.95,19.8c-.52,3.85-.85,6.54-1,8,.11-.2.23-.45.36-.74a7.26,7.26,0,0,0,.7-2.43.39.39,0,0,0,0-.18,1.47,1.47,0,0,1-.11-.51.77.77,0,0,1,.78-.8c.2-.11.95-.81,3.37-4.92,5.88-10,11.12-14.91,16-14.91a6,6,0,0,1,3.14.77c.86.52,1.92,2.07,3.32,4.87a31.56,31.56,0,0,1,1.61,3.8,27.12,27.12,0,0,1,.72,7.61c0,7.1-.17,13.21-.5,18.17-.1,2-.17,3.57-.21,4.57.37-.84.91-2.11,1.67-4,1.61-4,2.71-6.29,3.37-7A5.79,5.79,0,0,0,337.6,170c.31-1,.62-1.59,1.16-1.59h.55v.55c0,.29,0,1-4.73,13.59-.91,2.43-1.64,4.41-2.24,6l.63-1.42c3.83-8.67,4.06-8.67,4.5-8.67h.25l.15.2a2.7,2.7,0,0,1,.4,1.63c0,1.67-.71,4.44-2.17,8.48a25.52,25.52,0,0,0-1.5,4.85,1,1,0,0,1,.29,0c.2,0,.84.08.84,1.09,0,.66-.31,2.34-3,9.32a62.38,62.38,0,0,1-4.83,10.68c1.06-1.5,2.3-3.46,3.69-5.86,3.67-6.33,4.05-6.33,4.45-6.33a.59.59,0,0,1,.59.64,12.6,12.6,0,0,1-1.07,3.56c-2.84,7.79-6.14,12.86-9.8,15.05a10.74,10.74,0,0,1-4.73,1.07,9.1,9.1,0,0,1-5.51-1.59,8.06,8.06,0,0,1-3.75-6.22c-.22-2.45-.33-4.27-.33-5.41a154.44,154.44,0,0,1,1.45-17.81c.63-5.65,1-9.45,1.14-11.33-.2.33-.45.77-.77,1.33-.95,1.68-2.08,3.85-3.46,6.61-3,6-5.41,10.39-7.23,13.41s-3.51,5.11-5,6.11a8.71,8.71,0,0,1-5.05,1.53c-6.49,0-9.78-4.72-9.78-14,0-2.24.15-5.33.44-9.19.69-8.93,1.38-15.26,2.07-18.81-1,1.57-3,5.35-7.24,14.1C271.84,194.41,266.69,204,262.79,210c-5.55,8.47-10.46,12.64-15,12.75h-1.7a9.13,9.13,0,0,1-8.17-4.66,19.78,19.78,0,0,1-2-6.44,41.81,41.81,0,0,1-.68-6.84,152.23,152.23,0,0,1,1.69-15.48c.46-3.46,1-6.83,1.6-10,.07-.37.14-.74.22-1.11l-1.72-.35-2.41-.47a15.33,15.33,0,0,1-2.59-.77,17,17,0,0,1-2.36-1.1,35.26,35.26,0,0,1-6.13-5.51,33.14,33.14,0,0,1-4.85-6.4,12.74,12.74,0,0,0-1.29-2.14,22,22,0,0,0-1.47,4c-.91,2.94-1.91,6.72-3,11.22-.62,2.79-1.44,7.89-2.42,15.16-1,7.46-2.2,17-3.43,28.42l-.05.45h-.45c-8.19-.13-13.29-.3-15.15-.5-1.46-.25-2.18-.81-2.18-1.68a3.13,3.13,0,0,1,.11-.81c.15-.9.4-5.13.73-12.53.27-6.8.79-14.29,1.55-22.25.44-4.23.77-8.6,1-13a3.71,3.71,0,0,0-1.22.18l0,.24c0,.91-1.11,1.36-1.94,1.62a20.18,20.18,0,0,1-5.25.72,3.66,3.66,0,0,0-1,.19,5.36,5.36,0,0,0,2.08.77l4.27.72L185.78,176a4.18,4.18,0,0,0-1.52.8,1.18,1.18,0,0,0-.17.59,5.7,5.7,0,0,0,.23,1.36,37.8,37.8,0,0,1,.57,7.33,71.87,71.87,0,0,1-1.36,15.67,53.07,53.07,0,0,1-6.5,14.8,32.38,32.38,0,0,1-9.62,10A29.86,29.86,0,0,1,152,231.11Zm9.69-75.6a19.61,19.61,0,0,0-6.08,1.76,38,38,0,0,0-5,2.49,42.77,42.77,0,0,0-8,7.26,50.35,50.35,0,0,0-6.65,9.45,55.09,55.09,0,0,0-6.2,24.62,37.28,37.28,0,0,0,4.55,18.67,20.08,20.08,0,0,0,13.4,10,24.65,24.65,0,0,0,4.27.38,28.89,28.89,0,0,0,14.85-4.45A31.3,31.3,0,0,0,176.2,216a52,52,0,0,0,6.37-14.5,70.92,70.92,0,0,0,1.33-15.43,36.86,36.86,0,0,0-.54-7.1,6.34,6.34,0,0,1-.26-1.59,2.05,2.05,0,0,1,.33-1.11c.16-.25.52-.61,2-1.19l.67-.29-1-.16c-2-.48-2.94-1-2.94-1.83s1.34-1,2-1.09a19.09,19.09,0,0,0,5-.67c1.06-.33,1.22-.61,1.24-.66l0-.36c0-.93,1.32-1.07,2.75-1.09h.52l0,.52c-.22,4.6-.56,9.17-1,13.59-.75,7.94-1.27,15.4-1.54,22.19-.34,7.55-.58,11.71-.75,12.69a2.24,2.24,0,0,0-.09.61c0,.41.83.62,1.32.7,1.77.19,6.68.36,14.58.49,1.22-11.22,2.35-20.64,3.39-28s1.8-12.43,2.44-15.25c1.07-4.53,2.07-8.33,3-11.29,1.39-4.5,1.86-4.85,2.37-4.85s.86.22,2.22,2.82a31.88,31.88,0,0,0,4.7,6.19,33.6,33.6,0,0,0,5.92,5.33,14.83,14.83,0,0,0,2.2,1,12.42,12.42,0,0,0,2.42.72l.12,0c-2.49-1.76-4-2.89-4.74-3.51a20,20,0,0,1-2.43-2.26c-.57-.65-1.14-1.3-1.74-2l-3.29-3.65,6.64,4.91a22.48,22.48,0,0,0,5.39,2.84,15.84,15.84,0,0,0,5.25,1.09h.6l-.13.65c-.33,1.62-.65,3.27-1,5-.59,3.15-1.13,6.51-1.58,10a150.76,150.76,0,0,0-1.69,15.34,41,41,0,0,0,.66,6.68,19.16,19.16,0,0,0,1.91,6.1,8.09,8.09,0,0,0,7.32,4.17h1.69c4.13-.1,8.92-4.24,14.2-12.3,3.88-6,9-15.53,15.23-28.37,7.59-15.64,8.18-15.64,8.69-15.64.07,0,.64,0,.64.79a5.81,5.81,0,0,1-.21,1.27c-.68,3.46-1.38,9.79-2.07,18.8-.3,3.83-.44,6.9-.44,9.11,0,8.76,2.87,13,8.79,13a7.75,7.75,0,0,0,4.49-1.35c1.32-.92,2.9-2.87,4.68-5.82s4.16-7.35,7.19-13.34c1.39-2.77,2.53-4.95,3.49-6.65,1.59-2.81,1.79-2.81,2.12-2.81h.21l.14.14c.17.17.2.39.2.8,0,1.23-.39,5.31-1.2,12.48a154.6,154.6,0,0,0-1.44,17.69c0,1.11.11,2.9.32,5.33a7.11,7.11,0,0,0,3.34,5.49,8.16,8.16,0,0,0,4.94,1.41,9.8,9.8,0,0,0,4.26-.95c3.42-2.05,6.58-7,9.35-14.53.24-.64.42-1.16.57-1.58-.57.86-1.44,2.27-2.77,4.56a49.51,49.51,0,0,1-5.73,8.42,8.26,8.26,0,0,1-6.12,2.83,6.22,6.22,0,0,1-1.52-.21,5.18,5.18,0,0,1-2-1.26,8.67,8.67,0,0,1-1.95-2.79,10,10,0,0,1-1.24-4c0-1.11.72-1.19.94-1.19.38,0,.69.27.91.8a3.91,3.91,0,0,1,.23,1.38,4.78,4.78,0,0,0,1.5,3.43,4.49,4.49,0,0,0,3.32,1.54,6.64,6.64,0,0,0,5.45-2.94c1.57-2,3.44-6,5.57-11.7,2.4-6.29,2.9-8.35,2.9-9v0a.85.85,0,0,1-.4.13c-.12,0-.74-.05-.74-.94,0-.51.16-1.61,1.57-5.39s2.11-6.61,2.11-8.14v-.12c-.51,1-1.49,3-3.4,7.36-3.84,8.67-4,8.67-4.46,8.67h-.5v-.5c0-.28,0-.94,4.74-13.54,1.67-4.45,2.75-7.43,3.45-9.42-.4.46-1.28,2-3.18,6.73-2.48,6.14-2.64,6.14-3.07,6.14s-.54-.47-.54-1.34c0-.53.08-2.53.25-5.79.33-4.94.49-11,.49-18.11a26.74,26.74,0,0,0-.67-7.3,31.9,31.9,0,0,0-1.56-3.67c-1.59-3.18-2.48-4.18-2.94-4.46a5,5,0,0,0-2.63-.63c-4.46,0-9.57,4.85-15.18,14.42-2.71,4.61-3.52,5.29-3.95,5.39a1.58,1.58,0,0,1,.09.52,7.91,7.91,0,0,1-.78,2.83c-.93,2-1.3,2.34-1.75,2.34a.58.58,0,0,1-.52-.32,1.12,1.12,0,0,1-.08-.48c0-.79.36-3.85,1.1-9.35A153.08,153.08,0,0,0,304.13,140a21.42,21.42,0,0,0-.82-6.74c-1.52-4.67-3.51-7-5.95-7-1.55,0-3.44.76-5.63,2.25-2.3,1.33-4.93,4.39-7.86,9.12s-7.6,13.54-13.74,25.93c-7.85,15.8-12.58,25-14.05,27.24-1.16,1.83-2,2.66-2.8,2.66-1.09,0-1.09-1.65-1.09-2.19a43.89,43.89,0,0,1,.4-4.83A99.11,99.11,0,0,0,253,176c0-4.42-.2-7.35-.61-8.71a1.88,1.88,0,0,1-.18-.78,1.46,1.46,0,0,1,.66-1.37.31.31,0,0,0,.18-.32,2.38,2.38,0,0,0-.38-1.05c-.23-.54-.51-1.68-.51-6a85.77,85.77,0,0,1,.62-10.71c-.17.72-.35,1.37-.52,2-.52,1.72-.84,2.24-1.35,2.24a.91.91,0,0,1-.94-1,1.38,1.38,0,0,1,.19-.71A41.57,41.57,0,0,0,251.4,144c.17-1.13.28-2.1.34-2.88a1.2,1.2,0,0,1-.7.23c-.62,0-.94-.56-.94-1.64a21.79,21.79,0,0,1,.56-4.06,2.27,2.27,0,0,1-.94,1.07c-.4.53-1.45,3.06-4,13.65-1.08,4.43-2.17,9.24-3.24,14.29l-.13.61-.57-.27a1,1,0,0,0-.32-.09c-1.37-.12-3.09-1.42-5.25-4a54.4,54.4,0,0,1-6.17-9.41,56.76,56.76,0,0,0-4-6.75,13.42,13.42,0,0,0-3.48-3.25,10.92,10.92,0,0,0-6.29-2.41c-3.91,0-7.49,3.3-10.64,9.81-.67,1.34-1.23,2.47-1.72,3.41-.75,1.5-.89,1.62-1,1.7a.9.9,0,0,1-.56.24c-.73,0-1.45-.8-2.58-4.61a10.43,10.43,0,0,1,.14,1.53c0,.36,0,1.19-.65,1.19h-.12l-.15-.05c-.24-.13-.39-.2-1.88-4.85a1.09,1.09,0,0,1-.93.68c-.53,0-1.05-.44-1.7-1.42-.11-.16-.2-.29-.28-.39-.17,1.2-.36,4.48-.36,13.09,0,1.29,0,2.56-.06,3.82l0,.73-.67-.28a4,4,0,0,1-1.07-.67,3.54,3.54,0,0,0-2.5-1c-1.51,0-4.85-.69-9.92-2.05a26.24,26.24,0,0,1-3.54-1.12,1.77,1.77,0,0,0,0,.24c0,.21-.08.9-1.14.9-.33,0-1.29-.18-5.86-1.51a15.58,15.58,0,0,1-2.1-.76,20.6,20.6,0,0,1-3.52.48c-.89,0-1.34-.27-1.34-.8v-.13l.07-.12c.06-.1.13-.21.74-.55-1-.06-1.16-.67-1.16-.94v-.15ZM317.43,218l.34.34a4.41,4.41,0,0,0,1.59,1,4.73,4.73,0,0,0,1.27.18,7,7,0,0,0,4.8-1.94,7.17,7.17,0,0,1-4.61,1.64A5.29,5.29,0,0,1,317.43,218Zm-2.52-5.52a5.14,5.14,0,0,0,.1.61A2.78,2.78,0,0,0,314.91,212.51Zm-84.52-40.65.38.32c.87.74,3,2.31,6.59,4.8l1.39,1c.2-1,.4-2.06.6-3.07a17.78,17.78,0,0,1-5-1.13A23.87,23.87,0,0,1,230.39,171.86Zm71.7-2.71Zm-84.92-7.84Zm34-28.18a1.86,1.86,0,0,0-.32,1.21v.2c.07-.31.14-.63.22-1S251.18,133.25,251.21,133.13ZM156,228.53c-.61,0-1.54,0-1.54-.7,0-.43.45-.61.64-.68a2.76,2.76,0,0,1,1-.16c1,0,1.14.55,1.14.79C157.2,228.28,156.78,228.53,156,228.53Zm2.58-.65c-.52,0-.74-.31-.74-.59s.24-.83,3.25-2.06a35.34,35.34,0,0,0,6.31-3.22c1.87-1.28,2-1.28,2.17-1.28h.5v.49c0,.25,0,.33-1.42,1.52a26.71,26.71,0,0,1-5.26,3.34,15,15,0,0,1-4.8,1.8Zm11.12-6.18Zm-18.27-6.14a5.7,5.7,0,0,1-2.83-.67,5.32,5.32,0,0,1-1.34-1.32c-2.17-2.61-3.28-6.55-3.28-11.68a67.55,67.55,0,0,1,.77-7.92c.52-3.8,2.38-8.38,5.51-13.61a16,16,0,0,0,2.22-5,9.81,9.81,0,0,1,1.05-3.27,3.12,3.12,0,0,0,.37-.91.53.53,0,0,1-.23-.44c0-.34.23-.68.83-1.19a.83.83,0,0,1-.24-.65,6.58,6.58,0,0,1,.85-2.2l.1-.22.23-.05c5.2-1.23,9.24-1.22,11.91.08,3.74,1.88,4.06,2.5,4.06,3a.84.84,0,0,1-.61.81,15,15,0,0,0-2.66,1.86c-1.12,1-1.2,1.39-1.2,1.5a7.45,7.45,0,0,0,.75,2.35c1.18,2.94,1.78,6.95,1.78,11.92,0,7.35-1.61,13.75-4.79,19C161.21,212.68,156.75,215.56,151.39,215.56Zm3.38-44.91a1,1,0,0,1,.09.47,3.47,3.47,0,0,1-.5,1.48,8.68,8.68,0,0,0-.94,2.94,16.51,16.51,0,0,1-2.35,5.33c-3.06,5.11-4.87,9.56-5.38,13.23a68,68,0,0,0-.77,7.79c0,4.89,1,8.62,3.07,11.06a4.79,4.79,0,0,0,1.08,1.09,4.6,4.6,0,0,0,2.32.53c5,0,9.16-2.72,12.4-8.07,3.09-5.13,4.65-11.37,4.65-18.53,0-4.84-.57-8.73-1.7-11.55a7.49,7.49,0,0,1-.83-2.72c0-.62.49-1.34,1.56-2.26a16,16,0,0,1,2.81-2,15.2,15.2,0,0,0-3.4-2c-2.41-1.17-6.18-1.18-11-.06-.28.61-.44,1-.53,1.22l0,0,.93-.19V169c0,.25-.12.43-.92,1.12A5.38,5.38,0,0,0,154.77,170.65Zm21.62,42.77h-.5v-.5c0-.17.05-.4.6-1.51,1-2.2,1.31-2.36,1.69-2.36.19,0,.64.09.64.89a4.31,4.31,0,0,1-1.24,2.39C176.94,213.2,176.71,213.42,176.39,213.42Zm2.43-4.47a.57.57,0,0,1-.54-.65,10.26,10.26,0,0,1,.72-2.8c1.16-3.31,1.44-3.46,1.86-3.46a.62.62,0,0,1,.6.69,11.48,11.48,0,0,1-1.39,4.64h0C179.4,208.7,179.2,209,178.82,209Zm117.5-1.59-.74-.65,1.69-2.24c1.6-2,2-2.18,2.38-2.18a.57.57,0,0,1,.59.59,1.85,1.85,0,0,1-.49,1h0C299.46,204.28,298.33,205.41,296.32,207.36Zm-7.65-.31c-.27,0-.43,0-2.12-2a9,9,0,0,1-1.58-2.63,14.68,14.68,0,0,1-.67-5.25c0-1,.12-4.66.35-10.26h.44V183a8.32,8.32,0,0,1,.64-3.44c.38-1,.58-1.38,1-1.38.59,0,.59.72.59,1a12.27,12.27,0,0,1-.26,2.23,26.65,26.65,0,0,1-1,3.55l-.65,2h.23c.16,8.71.31,11.37.4,12.07a9.52,9.52,0,0,0,1.6,4.74c1.53,2.39,1.53,2.58,1.53,2.78V207Zm-.49-.46ZM208.4,187.67c-.74,0-.74-1-.74-1.49s.07-1.29.69-1.29c.43,0,.61.44.68.63a2.32,2.32,0,0,1,.16.81v.35a1.07,1.07,0,0,1-.21.69A.73.73,0,0,1,208.4,187.67Zm.54-3.48c-.59,0-.59-.71-.59-.94a11.55,11.55,0,0,1,.41-2.61c.2-.86.74-2.6,1.66-5.3l1,.23C210,184.19,209.52,184.19,208.94,184.19Zm80.37-23.11c-.79,0-.79-1.13-.79-1.88,0-.57.09-1.85.73-2.29a.74.74,0,0,1-.43-.7,1.31,1.31,0,0,1,.06-.38l0,0a2.71,2.71,0,0,1-.92.26.6.6,0,0,1-.64-.59c0-.29.18-.59.69-1.1a2.54,2.54,0,0,1,1.79-1.19l.44.06c.66.09.75.93.75,1.83a2.42,2.42,0,0,1-.29,1.24,1.41,1.41,0,0,1-.43.49,1.23,1.23,0,0,1,.72,1.3,3.44,3.44,0,0,1-.22,1.11h0a5.53,5.53,0,0,1-.54,1.12C290,160.74,289.69,161.08,289.31,161.08Zm.49-3.33a2.9,2.9,0,0,0-.29,1.47c0,.12,0,.23,0,.33a5,5,0,0,0,.27-.62,2.29,2.29,0,0,0,.17-.78C290,157.8,289.89,157.76,289.8,157.75Zm-.14-1.74Zm-.25-1.34a.67.67,0,0,1,.55.24,2.89,2.89,0,0,0-.07-.67l-.15,0s-.27,0-.74.52A1.76,1.76,0,0,1,289.41,154.67Z"/><path class="cls-2" d="M383.5,239.31a10.85,10.85,0,0,1-5.88-1.67,15.67,15.67,0,0,1-4.13-4.12,18.89,18.89,0,0,1-2.41-7.25,59,59,0,0,1-.75-9.42l.1-5.63c0-1,0-1.68,0-2.12-.23.32-.54.8-1,1.54a41.15,41.15,0,0,1-5.11,6.3,35.94,35.94,0,0,1-5.93,5.24,15.12,15.12,0,0,1-7.68,2.42c-4.86,0-8.48-2.66-10.74-7.91a24.35,24.35,0,0,1-1.28-8.39,60.57,60.57,0,0,1,1.55-12.58,132.43,132.43,0,0,1,9.48-27.59c5.47-11.78,11.69-20.6,18.47-26.21a17.56,17.56,0,0,1,11.35-4.29,18.91,18.91,0,0,1,9.24,2.59c3.9,2.19,4.43,3.13,4.43,3.77a.75.75,0,0,1-.83.74l.2.21c1.95,2.13,2.22,2.78,2.22,3.17a.63.63,0,0,1-.65.64c-.35,0-.87-.17-3-2.28s-2.87-2.34-3-2.34a2.21,2.21,0,0,0-.37,0,5.34,5.34,0,0,0,1.33,1.38l1.65,1.45-.6.78L388,146.33a15.07,15.07,0,0,0-7.77-2.64,5.11,5.11,0,0,0-1.14.12l.8,0c3.68.14,6.51,1.33,8.42,3.55.42.47.56.72.56,1v.2l-.34.34h-.2c-.23,0-.46-.07-1.84-1.09a9.54,9.54,0,0,0-5.47-2,7.51,7.51,0,0,0-2.5.45,7.86,7.86,0,0,0-2.63,1.68,12.72,12.72,0,0,0-2.16,2.49,3.76,3.76,0,0,0-.71,1.72l0,.3a2.29,2.29,0,0,1,.17.77.88.88,0,0,1-.74,1c-.15.15-.64.89-1.67,4.42a23.61,23.61,0,0,0-.75,3.41c-.16,1.12-1.41,4-3.81,8.79a158.69,158.69,0,0,0-7.22,18.08,23.42,23.42,0,0,0-1.42,5.41c0,1.28.25,1.55.3,1.55.48,0,1.95-.75,5.37-7.68,1.59-3.1,4.23-9.06,8.09-18.21,1.59-3.74,3.09-7.05,4.46-9.85a31.49,31.49,0,0,1,2.88-5.15,6,6,0,0,1,4.7-1.76h.84c3.24,0,5.34,1.32,6.23,3.91a19.16,19.16,0,0,1,.68,5.83,82.51,82.51,0,0,1-.6,9c-2.34,22-3.53,36.4-3.53,42.69a14.38,14.38,0,0,0,.21,3.15,12.32,12.32,0,0,0,2.65-2.67,85.28,85.28,0,0,0,5.43-7.36A58.64,58.64,0,0,0,399.8,200a52.45,52.45,0,0,1,3.86-6.82,68.63,68.63,0,0,0,5-9.48c.12-.26.24-.52.36-.76.73-5.22,1.83-11.48,3.29-18.62,4.85-24,5.76-24,6.5-24h.09a1.4,1.4,0,0,0,.18-.16,2.24,2.24,0,0,0,.41-.68c.12-.28.33-.8.81-.8s.7.7.74,2.29a12.35,12.35,0,0,0,.12,1.74l.15-.13a1.46,1.46,0,0,1,.92-.47c.28,0,.75.15.75,1.14,0,.16,0,.35,0,.59.36-1.75.73-2.13,1.22-2.13.67,0,.72.89.75,1.31a11.31,11.31,0,0,1-.26,2.21,24.41,24.41,0,0,0-.34,4.08c0,3.4.34,5.63,1,6.63.61.79,1,2.48,1.27,5.16a11.12,11.12,0,0,0,.7,3.53.75.75,0,0,1,.7.76v.43c0,.9-.48,4.08-1.47,9.72a79.93,79.93,0,0,0-1.46,11.25,3.61,3.61,0,0,0,.12,1.16c.27-.15,1.12-.86,3.48-4.11,2.09-2.89,6.91-10,14.73-21.73,9.33-14,15.24-22.61,18.06-26.23,4.36-5.1,8.44-7.69,12.12-7.69a4.21,4.21,0,0,1,3.53,1.74,18.77,18.77,0,0,1,2.29,5.29h0a20,20,0,0,1,.73,4.85c0,2.09-1.1,9-3.28,20.52-1.59,8.21-3,14.71-4.14,19.31a50.9,50.9,0,0,0-1.17,7.66,43.16,43.16,0,0,1-1.12,7.22,18.17,18.17,0,0,0-.67,4.93c0,1.78-.17,2.88-1,2.88a.66.66,0,0,1-.25-.05,1.51,1.51,0,0,0-.19.43,6.12,6.12,0,0,0-.3,1.66c-.05.8-.05,1.12-.05,1.24a27.2,27.2,0,0,0,.15,2.74,13.68,13.68,0,0,1,.1,1.54c0,1.35-.37,2-1.1,2s-1.1-.78-1.47-2.79l-.82-4.58a23.76,23.76,0,0,1-.21,3.65q-.24,1-.87,1c-.67,0-1.18-.7-1.72-2.33a17.27,17.27,0,0,1-.71-2.75,6.9,6.9,0,0,0-.62-2.56l-.23,0c-.9,0-1.79-.79-2-10.23,0-1.68-.1-2.85-.15-3.66-.09.52-.19,1.2-.31,2.07-.53,4.95-1.15,5.95-2,5.95s-1.09-1.29-1.09-3.23a107.69,107.69,0,0,1,.9-11.64,68.32,68.32,0,0,1,1.15-7.3c.39-1.67.61-2.77.74-3.49-.35.5-.86,1.25-1.58,2.42-3.21,5-7.28,10.93-12.09,17.55s-8.59,11.44-11.17,14.32c-3.42,3.6-6,5.82-7.84,6.82-4,2-7.8,1.86-11.18-.27a10.54,10.54,0,0,1-1-.71l-.76,1.41L412,212c-1.83,3.34-3.52,6.17-5,8.42-6.19,9-11.61,14.74-16.09,17A17.45,17.45,0,0,1,383.5,239.31Zm-12.78-31.76h.12l.11.06c.31.16.47.24.47,3.62l-.1,5.62a58.23,58.23,0,0,0,.74,9.26,18.14,18.14,0,0,0,2.26,6.87,14.46,14.46,0,0,0,3.85,3.84c3.27,2.05,7.41,2,12.27-.29,4.33-2.19,9.62-7.81,15.71-16.68,1.5-2.22,3.18-5,5-8.33l.08-.14,1-1.94.29-.55.47.41a11.76,11.76,0,0,0,1.36,1c3.09,1.94,6.51,2,10.2.22,1.72-.93,4.27-3.15,7.56-6.61,2.55-2.84,6.29-7.64,11.1-14.24s8.86-12.48,12.05-17.49c2.33-3.76,2.66-3.76,3-3.76h.37l.17.7a27.58,27.58,0,0,1-.9,4.88,66.26,66.26,0,0,0-1.14,7.2,108,108,0,0,0-.89,11.52,9.12,9.12,0,0,0,.16,2c.21-.42.59-1.59.94-4.88.58-4.43.86-4.62,1.39-4.62s.88,0,1,6.3c.16,7.64.79,9,1,9.24l.27,0c.77,0,1.2.95,1.53,3.41a15.25,15.25,0,0,0,.67,2.58,5.55,5.55,0,0,0,.66,1.51l0-.11,0-.09c0-.2.14-1.85.26-8.26l1-.08,1.69,9.45a7.43,7.43,0,0,0,.51,1.84,3,3,0,0,0,.1-.91,12.42,12.42,0,0,0-.1-1.44c-.1-1-.15-1.95-.15-2.84,0-.23,0-.67.05-1.29a7.19,7.19,0,0,1,.35-1.92c.1-.32.38-1.16,1.09-1.16l.16,0a7.73,7.73,0,0,0,.14-1.81,19.11,19.11,0,0,1,.71-5.21,42.91,42.91,0,0,0,1.08-7,51,51,0,0,1,1.21-7.81c1.15-4.58,2.54-11.06,4.12-19.25,2.16-11.46,3.26-18.3,3.26-20.33a18.92,18.92,0,0,0-.7-4.6,17.47,17.47,0,0,0-2.15-5,3.18,3.18,0,0,0-2.71-1.31c-3.38,0-7.2,2.47-11.35,7.33-2.8,3.58-8.69,12.14-18,26.15-7.82,11.74-12.65,18.86-14.75,21.76-3.05,4.2-3.85,4.55-4.35,4.55-1,0-1-1.58-1-2.18a80.32,80.32,0,0,1,1.47-11.42,95.5,95.5,0,0,0,1.46-9.55v-.22c-.6-.13-1-1-1.39-4.4-.28-3.06-.75-4.23-1.09-4.68-.81-1.21-1.2-3.56-1.2-7.21,0-.82,0-1.63.11-2.42-.52,2.84-1,3.42-1.55,3.42h-.1c-.19,0-.65-.21-.65-1l.07-.57c.1-.38.2-.94.31-1.66s.22-1.49.33-2.23a14.7,14.7,0,0,0,.14-1.55l0,0c-.77.67-1.27.61-1.65,0-.11-.19-.22-.53-.27-2.31,0-.17,0-.31,0-.45a1.93,1.93,0,0,1-.22.28,1.25,1.25,0,0,1-.87.47c-.51.63-1.9,4.61-5.66,23.22-1.46,7.15-2.57,13.42-3.29,18.63l-.05.14c-.12.26-.25.54-.37.82a69.84,69.84,0,0,1-5.06,9.61,51.09,51.09,0,0,0-3.79,6.7,60.24,60.24,0,0,1-4.52,7.82,85.58,85.58,0,0,1-5.49,7.44c-2.28,2.74-3.11,3.11-3.61,3.11h-.35l-.15-.2c-.25-.33-.5-1.07-.5-4,0-6.33,1.19-20.73,3.54-42.8a83,83,0,0,0,.59-8.84,18.48,18.48,0,0,0-.62-5.51c-.76-2.18-2.49-3.24-5.3-3.24h-.84a5.1,5.1,0,0,0-4,1.43,29.13,29.13,0,0,0-2.73,4.93c-1.37,2.78-2.86,6.08-4.44,9.79-3.87,9.18-6.52,15.15-8.12,18.27-3.59,7.29-5.23,8.23-6.25,8.23-1.29,0-1.29-1.91-1.29-2.54a23.6,23.6,0,0,1,1.47-5.72,159,159,0,0,1,7.27-18.2c2.9-5.78,3.62-7.81,3.72-8.5a24.49,24.49,0,0,1,.78-3.55c1.26-4.33,1.85-5,2.37-5.11v0a1.54,1.54,0,0,0-.12-.47l0-.12-.05-.46a4.52,4.52,0,0,1,.87-2.27,12.8,12.8,0,0,1,2.32-2.69,9.07,9.07,0,0,1,3-1.89,8.75,8.75,0,0,1,1.89-.44h-.23c-2.14-.05-2.81-.16-2.81-.8,0-.4.36-.62,1.11-.95a5.42,5.42,0,0,1,2.07-.38,14.49,14.49,0,0,1,6.61,1.83,1.12,1.12,0,0,1-.1-.45c0-.28.13-.94,1.39-.94.49,0,1.35.3,3.68,2.63.33.34.62.62.87.85-.24-.28-.53-.62-.89-1-1.62-1.78-1.62-1.9-1.62-2.12v-.21l.47-.47.58.36c.29.19.51.32.68.41a15.52,15.52,0,0,0-3.66-2.49,18,18,0,0,0-8.76-2.48,16.57,16.57,0,0,0-10.72,4.07c-6.67,5.52-12.79,14.22-18.21,25.87a131.16,131.16,0,0,0-9.4,27.38,59.27,59.27,0,0,0-1.53,12.37,23.45,23.45,0,0,0,1.21,8c2.11,4.89,5.33,7.28,9.82,7.28a14.09,14.09,0,0,0,7.15-2.27,35,35,0,0,0,5.74-5.08,40.28,40.28,0,0,0,5-6.14C370,207.74,370.35,207.55,370.72,207.55Zm97.64-5.09h0Zm.53-.83Zm-22-20.17a.59.59,0,0,1-.6-.59c0-.4.2-1.15,1.77-3.51,2.22-3.14,2.58-3.43,2.87-3.45a.63.63,0,0,1-.11-.35c0-.36.24-.79,1.47-1.78.84-.67,1-.71,1.16-.71H454v.5c0,.24-.11.46-.76,1.21-1.05,1.31-1.37,1.43-1.7,1.42a.58.58,0,0,1,.08.3,3,3,0,0,1-.43,1.23c-.24.52-.61,1.18-1.11,2a22.68,22.68,0,0,1-1.45,2.17C447.49,181.35,447.2,181.46,446.92,181.46Zm-.14-1ZM457.26,167a.54.54,0,0,1-.55-.54c0-.18.05-.42.65-1.42.32-.68.82-1.56,1.58-1.56a.69.69,0,0,1,.7.74,2.64,2.64,0,0,1-1.09,1.8C457.68,166.93,457.48,167,457.26,167Z"/><path class="cls-2" d="M669.93,270.32c-.58,0-1.09-.42-2.32-5.95-.36-1.51-.69-3.11-1-4.75l-.24-1.4.08,3.24a8.36,8.36,0,0,1-.17,2,1.05,1.05,0,0,1-1,.91c-1.09,0-1.79-1.37-2.28-4.44a17.86,17.86,0,0,0-.95-4.75l-.05.05a.74.74,0,0,1-.5.24c-.7,0-1.35-.56-2.18-7.54a52.37,52.37,0,0,1-.4-6.37,32.2,32.2,0,0,0-.18-4,14.53,14.53,0,0,0-.18,2.49,40.78,40.78,0,0,1-.45,6.43c-.35,1.87-.71,2.56-1.33,2.56-.82,0-1.16-1.07-1.24-4l-.1-3.48a109,109,0,0,1,1-15c2.15-13.35,6.21-31.07,12.09-52.67s12.13-41.82,18.6-60.1c3.54-9.84,4.65-13.24,4.94-14.35-2.6,0-13.81,1.08-33.3,3.18-9.42,1-17.65,2-24.45,2.8s-14.63,1.91-23.3,3.18-20.21,3-35.33,5.4c-10.77,1.68-19.13,2.93-24.86,3.73s-9.63,1.26-11.66,1.39-3.6.2-4.71.2c-1.33,0-2.55,0-3.62-.15-8.59-.78-13.54-4.07-14.71-9.79a11,11,0,0,1-.21-2c0-3.18,1.72-6.24,5.1-9.07,4-3.3,11.16-6.94,21.27-10.82,21.82-8.48,49.77-16.67,83.06-24.32,11.68-2.74,23-5.15,33.62-7.17s27-4.82,48.67-8.35c3.82-.63,4.38-1,4.45-1.1.2-.23.88-1.5,3-7.18,2-5,3.17-8,3.65-9,.62-1.23,2.27-5.18,4.9-11.76C730.38,2,731,2,731.56,2a.58.58,0,0,1,.29.07,2.88,2.88,0,0,0,.72-1c.5-.9.73-1.15,1.08-1.15.14,0,.59.06.59.79A17.44,17.44,0,0,1,734,3a12.45,12.45,0,0,0-.2,1.86c0,.1,0,.18,0,.24a1.23,1.23,0,0,1,.44-.09c.43,0,.9.27.9,1a6.69,6.69,0,0,1-.34,1.72c1.21-3.06,1.52-3.06,1.88-3.06a.6.6,0,0,1,.59.65,10.91,10.91,0,0,1-1.18,4c-.74,1.64-1.17,5.56-1.3,11.66-.23,8-.49,9.56-.7,10a.41.41,0,0,0-.05.17h0a1.12,1.12,0,0,1,.72,1.19c0,.55-.28,2-2.72,8.53A25.89,25.89,0,0,0,731,44.28c1,0,3.85-.25,8.35-.69,16.55-1.65,34.06-2.49,52-2.49,21,0,38.81,1.61,52.89,4.79,4.74,1.12,10.33,2.8,16.61,5C866,52.68,866,53.09,866,53.53a.61.61,0,0,1-.29.53l1.25.61c3.81,2,3.81,2.17,3.81,2.53a.55.55,0,0,1-.59.55c-.21,0-.64,0-5.2-1.77a22.29,22.29,0,0,0-5.06-1.56h-.26a10.17,10.17,0,0,0,.94.62c1.33.78,1.53,1,1.53,1.32a.55.55,0,0,1-.6.54,27.26,27.26,0,0,1-3.77-1l-3.09-.84c2.43.73,4.47,1.39,6.09,2,2,.73,2.31,1,2.31,1.46a.57.57,0,0,1-.65.54,29.59,29.59,0,0,1-6.26-1.56,51.88,51.88,0,0,0-11.79-2.69c-3.05-.21-5.39-.32-7-.32a113.67,113.67,0,0,0-12.46.79c-2,.2-5.17.39-9.53.55a35.94,35.94,0,0,0-5.84.47c-.18.34-1.16.44-6.28.63-3.88.15-9.79.29-17.57.44-15.91.33-27.89.85-35.6,1.54-6.36.56-12.25,1.2-17.52,1.91-6.31.85-8.38,1.34-9,1.6-.16.15-.6.81-1.33,3.48a67.93,67.93,0,0,1-3.31,8.48A80,80,0,0,0,715.63,83l-.94,3.14,1.82.45a.28.28,0,0,1,0-.09c0-.43.46-.62.69-.71a2.55,2.55,0,0,1,.95-.18c1,0,1.14.55,1.14.79s-.1.58-.68.7c.77.2,1.52.41,2.25.62-.48-.24-.72-.45-.72-.77s.12-.65.94-.65a4.47,4.47,0,0,1,1.2.2,4.11,4.11,0,0,1,1.27.59c.44.31.71.56.71.9s-.22.6-.73.59a29.27,29.27,0,0,1,7.59,3.76,14,14,0,0,1,5.56,8.57,9.54,9.54,0,0,1,.11,1.49,19.79,19.79,0,0,1-1.07,6.17c-.69,1.94-1.26,2.73-2,2.73-.06,0-.6,0-.6-.74a4.35,4.35,0,0,1,.33-1.47,16.75,16.75,0,0,0,.72-5.34c0-6.2-3.9-10.29-11.92-12.5-1.78-.48-3.38-.85-4.77-1.1a31.76,31.76,0,0,1,3.27.9,44.85,44.85,0,0,1,6.83,2.84c2.25,1.18,3.25,2.09,3.25,2.95s-.62.94-.74.94a1.5,1.5,0,0,1-1-.47,3.22,3.22,0,0,0-1.66-.68c-.42,0-1.42-.15-5.14-1.46a27.29,27.29,0,0,0-8.53-1.66c-1.12,0-1.43.17-1.49.22a3.83,3.83,0,0,1-.91,1.53c-.39.64-1.49,3.21-4.49,11.68-10,28.16-18.22,54.6-24.54,78.59-1.12,4.25-1.82,7.16-2.08,8.66s-1,4.55-2,8.93c-1.19,5.34-2.15,10.12-2.87,14.18a57.9,57.9,0,0,1-1.87,8.93c-.67,2.15-1.53,10-2.55,23.18a34.13,34.13,0,0,1-.45,4c-.2,1-.4,1.71-.78,1.92a10.72,10.72,0,0,0-.11,2,75.93,75.93,0,0,0,.79,9.52,19.2,19.2,0,0,1,.2,2.35C670.62,269.43,670.62,270.32,669.93,270.32Zm-3.83-15.8c.5,0,.72,0,1.53,4.94.27,1.61.58,3.19.94,4.69.43,1.92.76,3.14,1,3.92,0-.34-.08-.73-.13-1.16a78,78,0,0,1-.8-9.65c0-1.89.09-2.7.58-2.86a5,5,0,0,0,.32-1.21,32,32,0,0,0,.44-3.87c1-13.49,1.89-21.15,2.61-23.42a60.36,60.36,0,0,0,1.82-8.78c.73-4.09,1.7-8.88,2.89-14.25,1.08-4.37,1.77-7.35,2-8.87s1-4.47,2.1-8.74c6.33-24,14.6-50.49,24.56-78.67,2.52-7.12,4-11,4.63-11.93l.06-.08a2.83,2.83,0,0,0,.72-1.23l0-.08c.26-.54,1-.77,2.38-.77a28.13,28.13,0,0,1,8.85,1.71,22.14,22.14,0,0,0,4.86,1.42,4.13,4.13,0,0,1,2.13.81,9,9,0,0,0-2.51-1.69A43.89,43.89,0,0,0,720.47,92a20.26,20.26,0,0,0-6-1.22c-.69,0-2.53,0-2.53-1.14,0-.89,1.27-.89,1.69-.89a37,37,0,0,1,8.87,1.56c8.39,2.31,12.65,6.83,12.65,13.45a20.07,20.07,0,0,1-.49,4.7c0-.06,0-.13.07-.2a18.87,18.87,0,0,0,1-5.85,7.2,7.2,0,0,0-.1-1.31,13,13,0,0,0-5.17-7.95c-2.78-2.06-7.12-3.83-12.9-5.27l-4.18-1,1.24-4.13A81.32,81.32,0,0,1,718,74a66.3,66.3,0,0,0,3.27-8.35c.82-3,1.34-3.75,1.71-4l.08-.06c.57-.27,2.14-.74,9.35-1.71,5.28-.71,11.19-1.35,17.56-1.91,7.73-.7,19.74-1.22,35.67-1.55,17-.32,22-.59,23-.76.32-.35,1.58-.58,6.64-.78,4.35-.16,7.53-.35,9.46-.54a113.28,113.28,0,0,1,12.57-.8c1.61,0,3.91.11,7,.32a34.74,34.74,0,0,1,4.82.74L848,54.2c-3.74-.94-3.89-1.19-3.89-1.67,0-.14,0-.59.79-.59,1.48,0,5.77,1,13.1,3l1.09.31c-.66-.49-.82-.79-.82-1.08,0-.74,1-.74,1.64-.74a23.28,23.28,0,0,1,5.39,1.62l.69.27c-2.47-1.2-2.6-1.48-2.6-1.84a.53.53,0,0,1,.29-.48c-.67-.29-1.64-.68-3.09-1.19-6.25-2.17-11.8-3.84-16.5-5-14-3.16-31.73-4.76-52.67-4.76-17.95,0-35.42.84-51.94,2.49-4.75.46-7.64.69-8.6.69-.8,0-.89-.45-.89-.64,0-.36.12-1.17,1.17-4.05,2.2-5.85,2.66-7.67,2.66-8.18,0-.2,0-.25,0-.25a1,1,0,0,1-.71-.94,1.38,1.38,0,0,1,.15-.62c.11-.21.38-1.6.6-9.58a60.89,60.89,0,0,1,.79-10c-1,2.52-1.43,2.74-1.84,2.74-.14,0-.59,0-.59-.79a10.32,10.32,0,0,1,.93-3.41A12,12,0,0,0,734.15,6V6l0,0a1.23,1.23,0,0,1-.52.15c-.53,0-.8-.45-.8-1.34a13.24,13.24,0,0,1,.21-2c0-.23.07-.45.1-.63-.45.66-.86,1-1.3,1l-.18,0c-.53.68-2.13,3.78-7,15.81-2.64,6.61-4.3,10.58-4.94,11.82-.45,1-1.66,4-3.61,8.9-2.25,6-2.91,7.15-3.21,7.5s-1.2.77-5,1.41c-21.63,3.52-38,6.33-48.64,8.35s-21.92,4.41-33.58,7.15C592.4,71.7,564.5,79.87,542.72,88.33c-10,3.84-17.07,7.43-21,10.66-3.14,2.64-4.74,5.43-4.74,8.31a9.93,9.93,0,0,0,.19,1.85c1.07,5.23,5.73,8.26,13.83,9,1,.1,2.23.15,3.53.15,1.09,0,2.65-.07,4.64-.2s5.89-.59,11.6-1.38,14.07-2,24.84-3.73c15.12-2.36,26.68-4.12,35.34-5.39s16.52-2.35,23.32-3.19,15-1.78,24.46-2.81c19.64-2.11,30.91-3.18,33.51-3.18l1,.1V99c0,.3,0,1-5.1,15.13-6.46,18.26-12.71,38.46-18.58,60s-9.92,39.25-12.06,52.56a108.2,108.2,0,0,0-1,14.88l.1,3.46a13,13,0,0,0,.26,2.68,10.8,10.8,0,0,0,.35-1.43,41.27,41.27,0,0,0,.43-6.26,15.19,15.19,0,0,1,.21-2.74c.09-.48.28-1.47,1-1.47s1.14.41,1.14,5.76a52.28,52.28,0,0,0,.39,6.25c.52,4.41,1,5.93,1.19,6.46a.82.82,0,0,1,.56-.23c.78,0,1.34.94,1.93,5.75.57,3.55,1.27,3.59,1.3,3.59s0-.05.07-.18a7.26,7.26,0,0,0,.13-1.71l0-1.42-.05-2.94C665.41,255.19,665.47,254.52,666.1,254.52Zm-3.9.46ZM713.54,89.71a7.64,7.64,0,0,0,1,.05l.53,0A14,14,0,0,0,713.54,89.71ZM869.82,57.47ZM732,2.22h0ZM675.45,158c-.14,0-.6-.06-.6-.79,0-1.13.6-3.23,1.82-6.4,1-2.45,1.24-2.7,1.66-2.7a.57.57,0,0,1,.54.65c0,.41-.22,1.53-2,6.57C676,157.85,675.85,158,675.45,158ZM679,147.31c-.27,0-.59-.15-.59-.89a5.39,5.39,0,0,1,.76-2.73c.47-.73.71-.94,1-.94.59,0,.59.68.59,1.19a4.73,4.73,0,0,1-.77,2.44C679.54,147.09,679.29,147.31,679,147.31Zm.41-.71Zm8.29-24.09c-.15,0-.52-.06-.63-.65v-.09a10,10,0,0,1,1-3.42c.61-1.22.93-1.6,1.35-1.6.15,0,.52.06.64.65v.09a8.15,8.15,0,0,1-1,3.41C688.42,122.11,688.11,122.51,687.67,122.51ZM551.34,102c-.65,0-.74-.34-.74-.54,0-.54,0-1,13.51-5.49,11.95-3.93,22.83-7.19,32.33-9.7l22.17-5.72c7.25-1.87,15.82-3.9,25.47-6,13.18-2.91,27.23-5.68,41.77-8.26,11.46-2,17.69-3,19-3,.48,0,1,.31,1,1.19a10.11,10.11,0,0,1-.46,2.37c-.51,1.62-1.82,5.3-3.89,11-.64,1.71-1.53,3.91-2.65,6.54l-.12.3-10.27,0c-7.7.06-18.8.83-33,2.28s-28,3.21-41,5.22c-8,1.24-12.66,1.94-14.33,2.14-5.46.82-9.41,1.39-11.73,1.69-3.65.58-7.26,1.18-10.71,1.78-5.25,1-10.46,1.85-15.48,2.54C551.58,102,551.42,102,551.34,102ZM704.85,64.31c-1.36,0-7.68,1-18.83,3-14.52,2.57-28.56,5.34-41.73,8.24-9.64,2.11-18.19,4.14-25.43,6l-22.17,5.72c-9.48,2.5-20.34,5.76-32.27,9.68-5.68,1.89-8.88,3-10.68,3.75l8.41-1.28c5-.69,10.2-1.54,15.44-2.53,3.46-.6,7.07-1.2,10.75-1.79,2.32-.3,6.27-.87,11.73-1.69,1.65-.2,6.46-.92,14.32-2.14,13-2,26.8-3.77,41-5.22s25.34-2.23,33.07-2.29l9.62,0c1-2.48,1.89-4.56,2.5-6.19,2.07-5.65,3.37-9.32,3.87-10.91a8.81,8.81,0,0,0,.42-2.09A.81.81,0,0,0,704.85,64.31Zm-30.5,34.15c-.61,0-1.54,0-1.54-.7s0-1.14,12.48-2.43c3.22-.33,5.68-.5,7.3-.5,1.08,0,2.24.07,2.24.89,0,1-1.4,1.72-8.23,1.94-4.68.17-8.11.38-10.2.64A17.58,17.58,0,0,1,674.35,98.46Zm18.24-2.64c-1.59,0-4,.17-7.2.5-2.85.29-5,.54-6.65.76,2-.16,4.64-.3,7.82-.41,4.73-.15,6.4-.55,7-.8A7,7,0,0,0,692.59,95.82Zm-166.2,2.09q-1.14,0-1.14-.69c0-.62.72-1,1.42-1.22a2,2,0,0,1,.71-.17.64.64,0,0,1,.7.64,1.14,1.14,0,0,1-.23.6,2.08,2.08,0,0,1-.63.57A1.62,1.62,0,0,1,526.39,97.91Zm.71-1.52Zm3.56-.62c-1,0-1.14-.46-1.14-.74,0-.52.56-.86,1.4-1.21H531a2.56,2.56,0,0,1,.68-.12.64.64,0,0,1,.69.64,1.13,1.13,0,0,1-.18.56,1.68,1.68,0,0,1-.63.61A1.64,1.64,0,0,1,530.66,95.77Zm2.54-1.59a.54.54,0,0,1-.59-.54c0-.51,0-.94,9.56-4.59,5.94-2.23,7.2-2.52,7.63-2.52a.68.68,0,0,1,.31.08.58.58,0,0,1,.33.57.88.88,0,0,1-.29.59c-.11.11-.22.23-3.3,1.41L542,91C533.63,94.18,533.38,94.18,533.2,94.18Zm20.28-7.75h-.12l-.48-.24v-.31c0-.39,0-.53,3.35-1.85a16.25,16.25,0,0,1,4.26-1.13.67.67,0,0,1,.69.7.8.8,0,0,1-.27.57c-.11.11-.21.21-2.16.84C555,86.28,554,86.43,553.48,86.43Zm37.13-10.74h-.45c-.5,0-1.19,0-1.19-.59s.46-.72,1.32-1a6.09,6.09,0,0,1,2.15-.67.71.71,0,0,1,.8.69,1.38,1.38,0,0,1-.25.7,1.68,1.68,0,0,1-1,.7A4.61,4.61,0,0,1,590.61,75.69ZM599,73.55h0c-.47,0-1.26-.07-1.26-.69,0-.44.47-.62.69-.71a2.62,2.62,0,0,1,1-.18c1,.07,1.14.56,1.14.84C600.49,73.55,599.49,73.55,599,73.55Zm4.92-1.44a.54.54,0,0,1-.54-.54c0-.43.38-.63,1.3-1,.67-.24,1.61-.55,2.8-.93s2.44-.73,3.68-1.05,2.25-.54,3-.66a12.88,12.88,0,0,1,1.76-.18c.74,0,.89.33.89.6,0,.51,0,1-7.09,2.62A43.24,43.24,0,0,1,603.92,72.11Zm8.66-2.81-1.18.29-.55.14C611.51,69.58,612.08,69.43,612.58,69.3Zm3.55-.51Zm4-.21q-1.14,0-1.14-.69c0-.6.7-1,1.4-1.25l.05,0a2.63,2.63,0,0,1,.68-.12.64.64,0,0,1,.69.65,1,1,0,0,1-.23.59,1.83,1.83,0,0,1-.58.56A1.52,1.52,0,0,1,620.13,68.58Z"/><path class="cls-2" d="M781.2,196.25l.18-2.6a7,7,0,0,1,.72-2.6c.38-1,.58-1.39,1-1.39s.58.62.59,1.17v.11l0,.1c-.39.86-.83,1.81-1.33,2.85Zm5.37-23.59-.91-.39c.43-1.15.86-2.32,1.31-3.51l.33-.87.54.76a.69.69,0,0,1,.13.43C788,169.43,787.81,170.15,786.57,172.66Z"/><path class="cls-2" d="M733,245.52a12.77,12.77,0,0,1-3.47-.46c-5.22-1.6-8.49-4.48-9.72-8.56A38.93,38.93,0,0,1,718,225.15a77.65,77.65,0,0,1,1.35-13.36,216.62,216.62,0,0,1,11.16-39.6c7-18.7,14.73-32.31,22.83-40.43,4.11-4.29,8.52-6.46,13.12-6.46h.8c4.89,0,8.82,2.22,11.69,6.59A18.24,18.24,0,0,1,781.8,142c0,6.18-2.23,12.93-6.63,20.1a71,71,0,0,1-14,16.26,42,42,0,0,1-5.94,4.13c-2.46,1.46-4.84,2.74-7.07,3.8a14.34,14.34,0,0,1-4.76,1.64c-.21.06-1.07.61-2.66,5.45-1.22,3.68-2.4,8.1-3.52,13.15-2,8.63-3,14.86-3,18.53a5.21,5.21,0,0,0,.35,2.43,2,2,0,0,0,1.39.8c.16,0,.89-.18,3.67-2.47a80.7,80.7,0,0,0,12-11.85c3.75-4.91,7-8.87,9.67-11.76a48.29,48.29,0,0,0,4.17-5.65c1.4-2.09,4-5.79,7.41-10.7l3.18-4.62c4.38-6.38,4.62-6.38,5-6.38h.5v.5a1,1,0,0,1-.12.45c.17-.26.36-.53.55-.83,4.19-6.38,4.47-6.44,4.77-6.52h.06l.28-.07c.49-1.26,1-2.54,1.51-3.84,6.66-16.89,13.67-27.74,20.82-32.25a11.41,11.41,0,0,1,3.25-1.68,11.15,11.15,0,0,1,2.48-.28,12.49,12.49,0,0,1,12.39,6.27,12.28,12.28,0,0,1,1.73,3.45,23.37,23.37,0,0,1,.74,4.81,28.24,28.24,0,0,1,.2,3.11,22.88,22.88,0,0,1-1.81,7.83c-1.88,4.94-2.24,4.94-2.67,4.94h-.12l-.38-.19,0-.08a4.13,4.13,0,0,0-1,.81c-.85,1.11-1.14,1.3-1.45,1.3a.57.57,0,0,1-.59-.59,2.5,2.5,0,0,1,.33-1,32.86,32.86,0,0,0,1-3.59l-.06.05c-.49.45-.79.63-1.08.63a.6.6,0,0,1-.59-.65,7.64,7.64,0,0,1,.42-1.87v-.06c-.56,1.54-1,1.88-1.43,1.88s-.64-.35-.64-1a5.45,5.45,0,0,1,.48-2.15,6.77,6.77,0,0,0,.22-1.73,12.62,12.62,0,0,0-.29-2.48,8.85,8.85,0,0,0-1.54-3.86,1.09,1.09,0,0,0-.66-.42s-.3,0-1.15.86c-2.37,2.24-5.2,6.47-8.4,12.59a149.48,149.48,0,0,0-13,36.17c-1.31,5.83-2,10-2,12.41,0,2.58.32,3,.35,3,.43.28.58.28.59.28.42,0,1.26-.29,2.91-1.67a104.56,104.56,0,0,0,7.82-7.47c1.71-1.81,3.58-3.73,5.72-5.87,4.17-4.2,6.91-7.05,8.38-8.68,1.31-1.48,2.44-2.79,3.37-3.91,2.08-2.51,3.59-4.22,4.48-5.08s2.13-2.22,3.72-4.12c2.11-2.5,2.61-2.71,3-2.71a.53.53,0,0,1,.5.34c5.11-5.11,5.48-5.11,5.81-5.11a.58.58,0,0,1,.59.59c0,.18,0,.27-2.46,4.15-.69,1.1-1.38,2.22-2,3.34a16.28,16.28,0,0,1,2.27-2.3,1.52,1.52,0,0,1,.69-.26.74.74,0,0,1,.73.57q1.3-5.13,2.75-10.69c4.83-18.66,9.4-35.28,13.59-49.42,4-13.25,8.49-27.28,13.35-41.69s9.21-26.74,12.93-36.65c5.73-15.27,6.6-15.5,7.12-15.64h.13a2.22,2.22,0,0,0,.36-.38,5.83,5.83,0,0,0,.77-1.49c.91-2,1.35-2.36,1.8-2.36.18,0,.59.08.69.78v.06a6.76,6.76,0,0,1-.62,2.27c-.24.63-.49,1.33-.74,2.11s-.47,1.55-.64,2.27a9.43,9.43,0,0,0-.23,1.4h0a2.56,2.56,0,0,1,.89-.24h.11a.77.77,0,0,1,.63.78,6.15,6.15,0,0,1-.35,1.57c1.91-5,2.13-5,2.54-5,.09,0,.54,0,.54.69a8,8,0,0,1-.36,1.88,30,30,0,0,1-1.21,3.62,85.08,85.08,0,0,0-5.09,24.89,40.45,40.45,0,0,1-1,7.7,44.75,44.75,0,0,0-1,6.83,43.39,43.39,0,0,1-1.66,8.65c-.86,3.09-3.42,11.26-7.61,24.27-4.3,13.45-6.93,22.11-8,26.46-1.3,5-2.37,8.82-3.19,11.46-1.5,4.59-2.81,9-3.9,13-1.14,4.21-2.81,10.67-4.94,19.22-3,12.14-4.86,19.45-5.53,21.74q-.12.38-.21.69c1.11-1.76,3.34-5.5,7.81-13.3,5-8.67,9.73-16.55,14.16-23.41a141.94,141.94,0,0,1,10.3-14.54,23.6,23.6,0,0,1,5.75-4.63,11.63,11.63,0,0,1,5.61-1.85,5.45,5.45,0,0,1,3.86,2.15,14.8,14.8,0,0,1,3,5.09v0c.34,1.45.51,4.85.51,10.4a233.1,233.1,0,0,1-.9,23.66c-.33,2.56-.65,9.16-1,20.19-.23,6.9-.35,11.63-.35,14.45,0,.78,0,1.32,0,1.68a7.23,7.23,0,0,0,.69-.87c.5-.74,1.81-2.4,4-5.05a142.07,142.07,0,0,0,9-12.68c5.91-8.88,6.5-8.88,6.92-8.88a.41.41,0,0,1,.16,0,25.57,25.57,0,0,0,2.86-4.54c1.8-3.23,3.29-5.75,4.42-7.49,1.76-2.67,2-2.8,2.4-2.8a.55.55,0,0,1,.55.59v.06c-.06.42-.22,1.69-6.22,13.29-1.58,3.07-3.05,5.76-4.37,8,.87-1.37,1.91-3,3.16-5,3.87-6.5,4-6.5,4.35-6.5.64,0,.64.8.64,1.64,0,1.66-1.2,4.7-3.68,9.28a37.48,37.48,0,0,0-2.79,6,2.35,2.35,0,0,0,.22-.3c.46-.74.66-1,1-1a.55.55,0,0,1,.55.59c0,.33-.19,1-1.59,3.85a125.65,125.65,0,0,1-7.21,12.53c-2,3.18-4,6-5.76,8.38,1.39-1.62,2.93-3.5,4.64-5.63,7.2-9.29,7.48-9.29,7.84-9.29a.56.56,0,0,1,.54.6c0,.19,0,.54-1.4,3.07a86.5,86.5,0,0,1-12,16.9c-4.69,5.14-8.72,8.28-12,9.33h-.06a16.52,16.52,0,0,1-3.33.36,8.33,8.33,0,0,1-7.31-3.49,15.5,15.5,0,0,1-2.54-5.1c-.32-1.43-.48-5.17-.48-11.44,0-12.66.32-24.31.94-34.62.47-7,.7-11.69.7-13.88v-.1c-.55.78-1.56,2.32-3.41,5.37-2.55,4.21-5.62,9.46-9.11,15.6s-7,12.33-10.11,18.18c-6,11.28-10.24,18.89-12.8,23.25-3.51,6-4.68,7.15-5.25,7.49a9.68,9.68,0,0,1-9.39,1.65,8.24,8.24,0,0,1-5.25-4A15.52,15.52,0,0,1,829,228c0-4.34,1.06-11.51,3.14-21.32.73-3.42,1.61-7.32,2.62-11.63-2.77,3.39-6.68,7.68-11.67,12.77-12.67,13-21.2,19.91-26.07,21.21a22.33,22.33,0,0,1-5.1.86,12.93,12.93,0,0,1-5.63-1.29,12.2,12.2,0,0,1-4.16-2.8,16.78,16.78,0,0,1-2.84-4.81,28.59,28.59,0,0,1-2.08-11.58v-.59c-3.25,4.59-6.93,9.27-10.94,13.91a121.25,121.25,0,0,1-15.49,15.5C744.39,243.08,738.42,245.52,733,245.52Zm33.45-119.23c-4.32,0-8.49,2.07-12.42,6.16-8,8-15.6,21.52-22.6,40.09A214.44,214.44,0,0,0,720.32,212,75.76,75.76,0,0,0,719,225.15a38.28,38.28,0,0,0,1.77,11.06c1.14,3.75,4.19,6.4,9.06,7.9a11.45,11.45,0,0,0,3.19.42c5.2,0,11-2.37,17.15-7.05a120.34,120.34,0,0,0,15.35-15.36,180.51,180.51,0,0,0,11.83-15.19l1-1.43-.09,1.73c0,.72-.05,1.47-.05,2.21a27.69,27.69,0,0,0,2,11.18,15.81,15.81,0,0,0,2.67,4.54,11.17,11.17,0,0,0,3.84,2.57,11.91,11.91,0,0,0,5.22,1.2,21.64,21.64,0,0,0,4.84-.83c4.63-1.23,13.25-8.28,25.62-20.94a171.84,171.84,0,0,0,13-14.42l1.41-1.83-.53,2.25c-1.22,5.15-2.27,9.78-3.12,13.75C831,216.66,830,223.76,830,228a14.57,14.57,0,0,0,1.24,6.42,7.27,7.27,0,0,0,4.68,3.5,8.67,8.67,0,0,0,8.5-1.52l.05,0c.4-.23,1.57-1.47,4.91-7.16,2.56-4.34,6.74-11.94,12.79-23.21,3.17-5.85,6.57-12,10.12-18.2s6.57-11.4,9.13-15.62c4-6.55,4.26-6.55,4.64-6.55h.26l.14.2c.12.16.2.37.2,1.59,0,2.21-.24,6.9-.7,13.94-.62,10.29-.94,21.92-.94,34.56,0,6.11.15,9.88.46,11.23a14.48,14.48,0,0,0,2.38,4.74,7.32,7.32,0,0,0,6.5,3.07,15.76,15.76,0,0,0,3.11-.33c3.08-1,7-4,11.52-9a85.49,85.49,0,0,0,11.88-16.7l.08-.16c-1.08,1.33-2.78,3.46-5.42,6.86a125,125,0,0,1-9.29,10.69c-2,2-2.13,2-2.38,2h-.5l-.05-.5c0-.26,0-.48,3.5-4.54A121.93,121.93,0,0,0,915,211.71a125.52,125.52,0,0,0,7.15-12.42c.32-.64.57-1.17.77-1.59a1.19,1.19,0,0,1-.37.06.72.72,0,0,1-.75-.75c0-.54.31-1.85,3-6.89s3.49-7.5,3.56-8.61c-.53.84-1.48,2.38-3.14,5.17-7.31,11.78-7.75,11.78-8.18,11.78a.53.53,0,0,1-.54-.55c0-.2,0-.39,3.74-7,1.34-2.3,2.84-5,4.46-8.18,2.72-5.27,4.28-8.47,5.14-10.4l-.16.26c-1.12,1.71-2.59,4.21-4.38,7.42-2.24,4-3,4.89-3.45,5.07a.41.41,0,0,1,0,.11c0,.41-.24,1.2-2,3.95-2.21,3-2.34,3-2.65,3h-.5v-.54a1.28,1.28,0,0,1,0-.17l-1.4,2.09a142.84,142.84,0,0,1-9.08,12.77c-2.13,2.58-3.46,4.26-3.94,5-.81,1.16-1.37,1.66-1.9,1.66H900l-.13-.4a19.26,19.26,0,0,1-.06-2.63c0-2.83.12-7.57.35-14.48.34-11.06.67-17.69,1-20.27a234.22,234.22,0,0,0,.89-23.55,63.85,63.85,0,0,0-.47-10.15,13.89,13.89,0,0,0-2.76-4.73,4.57,4.57,0,0,0-3.13-1.83,11,11,0,0,0-5.12,1.73,22.23,22.23,0,0,0-5.5,4.43,141.7,141.7,0,0,0-10.21,14.42c-4.42,6.85-9.18,14.71-14.13,23.36-8.6,15-8.93,15.08-9.27,15.15l-.35.08-.18-.31a1.12,1.12,0,0,1-.12-.55,8.57,8.57,0,0,1,.52-2.54c.66-2.26,2.51-9.56,5.51-21.68,2.14-8.56,3.8-15,4.94-19.25,1.09-4,2.41-8.39,3.91-13,.82-2.61,1.89-6.45,3.18-11.4,1.12-4.37,3.75-13,8-26.51,4.19-13,6.75-21.15,7.61-24.24a41.94,41.94,0,0,0,1.62-8.45,45,45,0,0,1,1.05-7,41,41,0,0,0,1-7.52,87.3,87.3,0,0,1,3.45-20.11c-1.63,4.38-1.92,4.38-2.32,4.38h-.38l-.16-.69c0-.24,0-1,1.57-5.67a42.76,42.76,0,0,0,1.72-5.24l-.23.08a1.53,1.53,0,0,1-.58.14c-.13,0-.79-.05-.79-1a8.18,8.18,0,0,1,.26-1.68c.18-.75.4-1.54.66-2.35s.51-1.52.75-2.16l.16-.42-.19.4a6.7,6.7,0,0,1-.9,1.72c-.38.48-.7.72-1,.75-.39.35-1.78,2.58-6.45,15C880,44.64,875.68,57,870.82,71.35S861.48,99.78,857.48,113c-4.18,14.12-8.76,30.73-13.59,49.38-2.46,9.51-4.64,18.15-6.46,25.67l0,.12-.29.31-.51.55a22.86,22.86,0,0,1-2.59,2.58c-.67.63-1,.76-1.25.76a.58.58,0,0,1-.6-.59,2,2,0,0,1,.92-1.71c.26-.18,1-1.12,3.06-5.17,1.55-3.06,1.78-4.14,1.78-4.5v0a1,1,0,0,1-.69-1,5.12,5.12,0,0,1,.86-2.28,8.38,8.38,0,0,0,1.17-3.7h0c-.18.13-1.32,1.3-5.65,6l-.78-.6,2.69-4.27c.7-1.19,1.44-2.4,2.18-3.58l1.19-1.89c-.79.73-1.95,1.84-3.65,3.55-2.13,2.18-2.23,2.18-2.48,2.18H832l-.06.07c-1.62,1.92-2.9,3.33-3.79,4.19s-2.35,2.52-4.41,5c-.93,1.13-2.07,2.45-3.39,3.94-1.48,1.65-4.24,4.5-8.42,8.72-2.13,2.13-4,4.05-5.7,5.86a105.78,105.78,0,0,1-7.91,7.54c-1.52,1.28-2.68,1.9-3.54,1.9a2.2,2.2,0,0,1-1.14-.45c-.41-.27-.79-.92-.79-3.82,0-2.48.67-6.73,2-12.63a150.89,150.89,0,0,1,13.12-36.41c3.26-6.21,6.15-10.54,8.6-12.85.81-.78,1.38-1.13,1.83-1.13a2,2,0,0,1,1.41.76,9.93,9.93,0,0,1,1.76,4.31,13.88,13.88,0,0,1,.31,2.68,7.59,7.59,0,0,1-.15,1.54c.74-2,1.05-2.33,1.49-2.33l.15,0c.22.07.49.28.49.86a15.27,15.27,0,0,1-.66,3.27c-.09.31-.16.56-.21.76a1.57,1.57,0,0,1,1-.49c.23,0,.64.16.64.79a15,15,0,0,1-.8,3.52c.66-.65,1.14-.94,1.55-.94a.85.85,0,0,1,.42.11,31.42,31.42,0,0,0,1.77-4.11,22.16,22.16,0,0,0,1.74-7.48,26.89,26.89,0,0,0-.2-3,22.07,22.07,0,0,0-.7-4.62,11.18,11.18,0,0,0-1.59-3.16,11.52,11.52,0,0,0-11.58-5.85,9.55,9.55,0,0,0-2.24.26,10.58,10.58,0,0,0-2.95,1.54c-7,4.4-13.85,15.09-20.44,31.78-.54,1.36-1.06,2.7-1.57,4a.57.57,0,0,1,0,.13c0,.35-.16,1.07-1.39,3.56-.86,2.38-1.61,4.52-2.28,6.55l-.06.12-.18.28-.54.84c-.77,1.2-1.45,2.18-2,2.9-.86,1.09-1.08,1.26-1.38,1.26a.66.66,0,0,1-.65-.74,2.53,2.53,0,0,1,.53-1.26l0-.05a29.23,29.23,0,0,0,1.59-2.66c1.83-3.31,3.16-5.8,4-7.62.24-.65.48-1.3.73-2-.61.82-1.68,2.38-3.58,5.27-3.38,5.09-3.77,5.09-4.14,5.09h-.21l-.34-.33v-.21a.17.17,0,0,1,0-.07l-1.24,1.79-3.18,4.62c-3.45,4.91-6,8.61-7.4,10.69a48,48,0,0,1-4.28,5.77c-2.64,2.87-5.87,6.8-9.61,11.69a81.77,81.77,0,0,1-12.15,12c-2.9,2.39-3.82,2.7-4.3,2.7a3,3,0,0,1-2.16-1.16l0-.06a5.86,5.86,0,0,1-.53-3c0-3.74,1-10,3-18.75a136.25,136.25,0,0,1,3.54-13.24c1.7-5.18,2.71-6,3.47-6.12h.08c.52,0,1.69-.27,4.38-1.54,2.21-1.05,4.56-2.31,7-3.76a42.15,42.15,0,0,0,5.79-4,70.29,70.29,0,0,0,13.82-16c4.3-7,6.48-13.59,6.48-19.58a17.31,17.31,0,0,0-2.7-9.61c-2.71-4.13-6.26-6.14-10.86-6.14Zm85.35,67Zm-19.11-1.84Zm4.43-6.24-.1.19a46,46,0,0,1-2.38,4.35q.57-.59,1.23-1.32c.18-.2.35-.39.52-.56l.11-.12C836.7,186.87,836.91,186,837.12,185.17Zm1.1-5.75a1,1,0,0,1,.29.13c.17-.71.35-1.42.53-2.14a.8.8,0,0,0-.08.16,4.24,4.24,0,0,0-.74,1.8Zm-54.77-.81-.36.66.14-.22.15-.23C783.4,178.75,783.43,178.68,783.45,178.61ZM892.68,15.32Zm-54,222a10.45,10.45,0,0,1-2.92-.64c-1.38-.47-2.6-1.77-3.73-4a10.38,10.38,0,0,1-1.1-4.8,13.92,13.92,0,0,1,.33-2.93c.22-1,.45-2,.68-3l.5-2.18a2,2,0,0,1-.32-1.33c0-.53.08-1.29.69-1.29.44,0,.62.46.71.69a2.47,2.47,0,0,1,.19.94c-.08,1-.56,1.15-.84,1.15l.14,6.65c.16,4.74,1.19,7.63,3.06,8.56,2.68,1.09,5.21.35,7.46-2.12,1.64-1.71,1.87-1.71,2.11-1.71a.55.55,0,0,1,.54.55c0,.34-.16.87-1.37,2.22h0C842.82,236.18,840.76,237.27,838.67,237.27Zm-6.66-11a11.37,11.37,0,0,0-.1,1.51,9.53,9.53,0,0,0,.79,3.94,22.78,22.78,0,0,1-.69-5.21Zm65.45,6.58a1.12,1.12,0,0,1-.85-.26l-.14-.14v-.2c0-.38,0-.38,4.92-3.3l.58.8-1.65,1.44a11.46,11.46,0,0,1-1.56,1.17A2.67,2.67,0,0,1,897.46,232.9Zm-50.14-4a.53.53,0,0,1-.55-.54,1.94,1.94,0,0,1,.31-.82c1.59-3.06,2.08-3.3,2.52-3.3a.61.61,0,0,1,.6.69c0,.4-.18,1.08-1.55,2.8h0C847.69,228.82,847.57,228.87,847.32,228.87Zm-62.13-2.43c-.46,0-1-.42-1.76-1.44a23.8,23.8,0,0,1-1.95-2.94c-1.32-2.25-2-3.95-2-5.21v-.59h.5c.37,0,.57,0,2.24,3.61a20.1,20.1,0,0,0,2.56,4.46c.68.72,1,1.18,1,1.56A.55.55,0,0,1,785.19,226.44Zm65.67-2.88h-.12c-.32,0-.79-.15-.79-1.14a1.63,1.63,0,0,1,.28-.89,1.79,1.79,0,0,1,.6-.62,1.16,1.16,0,0,1,.56-.18.63.63,0,0,1,.64.69,2.38,2.38,0,0,1-.12.69v0c-.33.78-.61,1.18-.93,1.34Zm-130.13-6.22h-.5v-.64c0-.37.08-1.24.25-2.59.14-1.05.31-2,.51-2.91a7.76,7.76,0,0,1,.62-1.92c.24-.42.45-.73.8-.73a.6.6,0,0,1,.6.65,29.61,29.61,0,0,1-.66,3.19C721.22,217.34,721.22,217.34,720.73,217.34Zm59.39-1.64c-.45,0-.62-.49-.74-.86a8.69,8.69,0,0,1-.32-1.23h0a6.39,6.39,0,0,1-.13-1.19c0-1.12.52-1.28.84-1.28s.7.28.91.83a4,4,0,0,1,.23,1.45C780.91,214.67,780.85,215.7,780.12,215.7Zm-57.51-8.2h-.12c-.26-.07-.57-.3-.57-1a6.79,6.79,0,0,1,.53-2.47c.26-.58.56-1.11,1.06-1.11l.15,0c.49.15.49.78.49,1a6.74,6.74,0,0,1-.53,2.46v0C723.32,207.08,723.05,207.5,722.61,207.5Zm141.7-8.4h-.49v-.49c0-.46.23-1.24,1.91-3.9,1.25-2,1.57-2.11,1.91-2.11a.53.53,0,0,1,.55.54c0,.32-.17.9-2.26,4.14C864.89,198.94,864.65,199.1,864.31,199.1ZM782,194.93c-.06,0-.6,0-.6-.75,0-.18,0-.36,0-.55a7,7,0,0,1,.72-2.58c.38-1,.58-1.39,1-1.39s.58.62.59,1.17c0,.12,0,.26,0,.42A5,5,0,0,1,783,194C782.6,194.66,782.31,194.93,782,194.93Zm87.23-4.28c-.07,0-.65,0-.65-.79,0-.27,0-.69,4.5-7.89s4.71-7.31,5.09-7.31a.58.58,0,0,1,.6.59c0,.25-.1.64-.83,1.76h0c-.34.51-1.82,3-4.4,7.47C869.91,190.65,869.58,190.65,869.19,190.65Zm-139.12-7.16c-.69,0-.69-.9-.69-1.24a10.28,10.28,0,0,1,1-3.39c1.06-2.57,1.43-2.77,1.83-2.77a.57.57,0,0,1,.54.65,11.16,11.16,0,0,1-.82,3.2C730.82,183.33,730.51,183.49,730.07,183.49ZM745.23,180a.75.75,0,0,1-.74-.85c0-.45.24-1.66,2.37-6.94l.09-.24a129.85,129.85,0,0,1,6-13.35,85.46,85.46,0,0,1,6.1-10.12c1.9-2.52,3.28-3.69,4.33-3.69h.29l.09,0a2,2,0,0,1,1.16,2.1c0,1.9-1.13,4.67-3.46,8.45-1,1.48-1.74,2.82-2.37,4a10.13,10.13,0,0,0-.89,1.93c0,.41-.2,1.31-1.83,4.48-1.51,2.93-1.74,3.86-1.74,4.15a4.86,4.86,0,0,1-.81,2.09,17.27,17.27,0,0,1-3.64,4.7,2.7,2.7,0,0,1-1.62.61s0,.07,0,.11a1.85,1.85,0,0,1-1.2,1.62.63.63,0,0,1-.2.13A4.58,4.58,0,0,1,745.23,180Zm18.19-34.2c-.32,0-1.29.32-3.53,3.29a83.79,83.79,0,0,0-6,10,126.58,126.58,0,0,0-6,13.24l-.1.26a42.76,42.76,0,0,0-2.28,6.37,6.7,6.7,0,0,0,1.07-.51v0l.28-.14c.51-.24.77-.51.77-.79h0l-.07-.15a1.1,1.1,0,0,1-.19-.55.55.55,0,0,1,.55-.59.91.91,0,0,1,.52.18.32.32,0,0,0,.13,0,1.68,1.68,0,0,0,1-.4,16.53,16.53,0,0,0,3.4-4.43,4.07,4.07,0,0,0,.68-1.59c0-.44.19-1.39,1.85-4.6,1.56-3,1.73-3.84,1.73-4.05s.07-.61,1-2.37c.64-1.21,1.45-2.57,2.4-4.06,2.19-3.57,3.31-6.24,3.31-7.93,0-.77-.25-1-.46-1.15Zm-15.07,30.9Z"/><path class="cls-2" d="M786.57,172.66l-.91-.39c.43-1.15.86-2.32,1.31-3.51l.33-.87.54.76a.69.69,0,0,1,.13.43C788,169.43,787.81,170.15,786.57,172.66Z"/><path class="cls-2" d="M889.76,48.26a.84.84,0,0,1-.94-.84,1.29,1.29,0,0,1,.26-.7,2.9,2.9,0,0,1,.43-.55,1,1,0,0,1,.7-.34c.3,0,.79.15.79,1.19a1.17,1.17,0,0,1-.37.87A1.21,1.21,0,0,1,889.76,48.26Z"/></g></g></g></svg>