<svg xmlns="http://www.w3.org/2000/svg" viewBox="0 0 206.67 70.86"><defs><style>.cls-1{fill:#00d9ff;}</style></defs><g id="Layer_2" data-name="Layer 2"><g id="Layer_1-2" data-name="Layer 1"><path class="cls-1" d="M15.35,58.85a36.53,36.53,0,0,1,1-8.74c.2-.88,0-1.26-.88-1.54A32.05,32.05,0,0,1,4.48,43a14.67,14.67,0,0,1-3-3.19,7.39,7.39,0,0,1,.6-9.58,24.38,24.38,0,0,1,9.71-6.41,34.5,34.5,0,0,1,3.66-1.28c.95-.28,1.22-.7,1-1.7a34.58,34.58,0,0,1-1-9.92,15.08,15.08,0,0,1,2-7.43C19.07.67,21.66-.26,24.8.16c3.94.52,7.25,2.48,10.41,4.74A26.81,26.81,0,0,1,39,8c.63.65,1.05.58,1.68,0A34.27,34.27,0,0,1,50.85,1.12a11.81,11.81,0,0,1,6.38-1c3.6.56,5.26,3.14,6.19,6.32a25.69,25.69,0,0,1,.33,11.34c-.17,1.11-.33,2.23-.6,3.32-.2.83.09,1.17.85,1.4a35.57,35.57,0,0,1,10.23,4.79,14.75,14.75,0,0,1,4.09,4.09,6.94,6.94,0,0,1,0,8.06c-1.78,2.76-4.4,4.52-7.19,6.06a35.86,35.86,0,0,1-7.16,3c-.71.21-.81.55-.66,1.19a37.76,37.76,0,0,1,1,9.94A18,18,0,0,1,63,66a7.47,7.47,0,0,1-8.72,4.75,22,22,0,0,1-8.54-3.77,31.24,31.24,0,0,1-5-4c-.6-.61-1-.56-1.57,0a30.67,30.67,0,0,1-11.59,7.28,9.85,9.85,0,0,1-6.81.12c-3.07-1.23-4.24-3.88-4.92-6.83A17.63,17.63,0,0,1,15.35,58.85ZM39.59,48.32a57.59,57.59,0,0,1,6.31-.25,2,2,0,0,0,1.75-1,113.31,113.31,0,0,0,6.18-10.81,1.76,1.76,0,0,0,0-1.81c-1.88-3.52-3.85-7-6-10.35a2.55,2.55,0,0,0-2.24-1.31q-5.91-.21-11.83,0a2,2,0,0,0-1.74.87A108.26,108.26,0,0,0,25.7,34.62a1.65,1.65,0,0,0,0,1.64,98.56,98.56,0,0,0,6.42,11,1.63,1.63,0,0,0,1.43.81A45.17,45.17,0,0,1,39.59,48.32ZM17.07,25.61a24.84,24.84,0,0,0-3.34,1.13,23.08,23.08,0,0,0-8.45,5c-2.4,2.4-2.36,4.72,0,7.14,3.22,3.37,7.36,5.06,11.66,6.47.57.19.81-.05,1-.56A83.19,83.19,0,0,1,21.22,36a1.33,1.33,0,0,0,0-1.17,85.29,85.29,0,0,1-3.4-8.76C17.74,25.8,17.63,25.53,17.07,25.61Zm1.77,33a13.76,13.76,0,0,0,1.23,6.6,3.64,3.64,0,0,0,3.46,2.11,10,10,0,0,0,3.59-.67A31.28,31.28,0,0,0,37,60.26c.55-.48.25-.79-.09-1.18a84.05,84.05,0,0,1-5.64-7,1.91,1.91,0,0,0-1.53-.87A66.76,66.76,0,0,1,21,50c-.74-.16-1,.09-1.19.81A37.08,37.08,0,0,0,18.84,58.63Zm0-46.7a36.87,36.87,0,0,0,1,8.43c.14.64.4.85,1,.71a76.93,76.93,0,0,1,9.17-1.41,1.09,1.09,0,0,0,.87-.46,84.14,84.14,0,0,1,5.92-7.4.65.65,0,0,0,0-1.05c-.69-.61-1.35-1.25-2.06-1.82-3-2.43-6.2-4.56-10.12-5.29A4,4,0,0,0,19.7,6.45,14.36,14.36,0,0,0,18.85,11.93ZM60.77,58A30,30,0,0,0,60,50.79c-.16-.84-.54-1.11-1.42-.93a63.29,63.29,0,0,1-8.87,1.33,1.44,1.44,0,0,0-1.11.64,79.41,79.41,0,0,1-5.8,7.38.57.57,0,0,0,0,.95c.76.67,1.49,1.4,2.28,2,2.75,2.21,5.64,4.18,9.15,5,3,.68,4.69-.3,5.72-3.16A15.72,15.72,0,0,0,60.77,58Zm0-45.69a26,26,0,0,0-.55-4.37c-1-4.05-3-5.23-7-3.94s-7.3,3.88-10.37,6.72c-.45.41-.45.74,0,1.2a78.93,78.93,0,0,1,5.73,7.17,1.23,1.23,0,0,0,.9.61,76.3,76.3,0,0,1,9.27,1.43c.56.12.88,0,1-.65A46.44,46.44,0,0,0,60.77,12.27ZM76.11,35.14a4.92,4.92,0,0,0-1.65-3.09c-3.23-3.29-7.37-4.93-11.64-6.32a.76.76,0,0,0-1.09.58c-.95,2.92-2.14,5.75-3.36,8.56A1.27,1.27,0,0,0,58.42,36a77.33,77.33,0,0,1,3.43,8.52c.24.71.59.81,1.22.57,1-.39,2.07-.69,3.07-1.12a23.87,23.87,0,0,0,8.19-5.09A5.31,5.31,0,0,0,76.11,35.14ZM39.81,51.6H36c-.54,0-.7.14-.33.63,1.13,1.53,2.4,3,3.64,4.39.36.42.72.5,1.1,0,1.18-1.44,2.37-2.89,3.54-4.35.4-.5.19-.72-.4-.71Zm12.47-4.11,5.8-1.05c.48-.08.6-.37.46-.81-.58-1.89-1.33-3.71-2.09-5.52-.15-.35-.37-.54-.63-.08l-3.91,6.8C51.69,47.22,51.73,47.48,52.28,47.49Zm-28.77-8a67.29,67.29,0,0,0-2.37,6.35c-.14.43.07.65.47.72q2.81.47,5.63.89c.46.07.77-.08.44-.63C26.27,44.53,24.87,42.2,23.51,39.51ZM39.76,19.26c1.29,0,2.58,0,3.88,0,.48,0,.64-.15.31-.59-1.14-1.53-2.37-3-3.63-4.41-.36-.4-.67-.41-1,0l-3.58,4.32c-.43.51-.26.69.35.68C37.3,19.25,38.53,19.26,39.76,19.26Zm12.57,4.18c-.2,0-.45-.09-.55.16s0,.32.13.46c1.24,2.15,2.5,4.3,3.75,6.45.1.17.16.41.4.41s.36-.28.44-.49c.62-1.66,1.22-3.33,1.84-5,.22-.59,0-.91-.59-1ZM23.5,31.31c.52-.95.9-1.67,1.3-2.38.94-1.61,1.89-3.22,2.83-4.84.16-.27.48-.74-.21-.64-1.91.28-3.81.65-5.71,1-.45.08-.61.39-.47.84A57.19,57.19,0,0,0,23.5,31.31Z"/><path class="cls-1" d="M32.73,35.25a6.93,6.93,0,0,1,7.11-7,7,7,0,0,1,7,7.22,7.08,7.08,0,1,1-14.15-.23Z"/><path class="cls-1" d="M114.66,31A11.07,11.07,0,0,0,113.9,24c-1.69-3.6-4.7-4.84-8.32-5H91.9V51.4h4V38.47h6.48L110.9,51.4h4.15l-8.43-13.25A8.91,8.91,0,0,0,114.66,31ZM96,34.94V22.55h9.63a5,5,0,0,1,4.21,2.4,6.55,6.55,0,0,1,.58,5.9c-.94,2.54-3,4.09-4.79,4.09Z"/><path class="cls-1" d="M130.12,27.3a10.32,10.32,0,0,0-9.68,5.38,14.06,14.06,0,0,0-1.45,11A11,11,0,0,0,122.26,49a13.23,13.23,0,0,0,17.24-.73l-1.89-2.33c-1.61,2.14-4.15,3-7.36,2.87-5.49-.5-7.57-4-8-8.09h18.87C141,32,137,28,130.12,27.3Zm-7.86,10.85c.41-4.36,2.4-6.77,5.73-7.53a8.46,8.46,0,0,1,4.83.29c2.91,1.07,4.56,3.43,4.79,7.24Z"/><path class="cls-1" d="M156.26,27.3c-3.95.2-7.2,1.33-9.4,3.87l1.73,2.33a9.6,9.6,0,0,1,7.79-3.15c3,.48,5.21,1.66,5.23,4.59v4.64c-2.94-3.07-6.24-3.93-10.71-2.65a9.32,9.32,0,0,0-3.22,1.74,7.15,7.15,0,0,0-2.08,5.1,7.78,7.78,0,0,0,1.11,4.45c1.31,2.1,3.57,3.53,7.2,3.59a10,10,0,0,0,7.7-3V51.4h3.59V34.78a7.42,7.42,0,0,0-1.06-3.89C162.72,28.61,160.19,27.32,156.26,27.3Zm5.35,18.62a6.63,6.63,0,0,1-4.75,3.14,8.47,8.47,0,0,1-3.25-.09,5,5,0,0,1-3.8-2.76,4.82,4.82,0,0,1,0-3.62,5,5,0,0,1,4.83-3.49,8.08,8.08,0,0,1,7,2.72Z"/><path class="cls-1" d="M178,32.4a8.61,8.61,0,0,1,3.78-1.89c2.83-.57,5.26.47,7.26,3l2.26-2.33c-1.6-2.31-4.19-3.66-7.95-3.87-5.73-.06-9.36,2.36-11.13,7a15,15,0,0,0-.63,8.35c1.08,5.34,4.47,8.54,10.58,9.2,4.11.25,7.08-1.21,9.13-4l-2.35-2.12a7.29,7.29,0,0,1-3.44,2.66,7.4,7.4,0,0,1-5-.05,8,8,0,0,1-5-5.28,11.34,11.34,0,0,1-.58-4.51A8.31,8.31,0,0,1,178,32.4Z"/><path class="cls-1" d="M205.5,47.48a2.52,2.52,0,0,1-2.4,1.23c-1.57-.05-2.26-.92-2.25-2.79V31.17h4.65v-3.3h-4.65V21.54h-3.68v6.33h-4v3.3h4V46.92a4.8,4.8,0,0,0,4.32,4.86c3.87.12,5.2-1.62,5.18-1.67Z"/></g></g></svg>