<?xml version="1.0" standalone="no"?>
<!DOCTYPE svg PUBLIC "-//W3C//DTD SVG 20010904//EN"
 "http://www.w3.org/TR/2001/REC-SVG-20010904/DTD/svg10.dtd">
<svg version="1.0" xmlns="http://www.w3.org/2000/svg"
 width="776.000000pt" height="776.000000pt" viewBox="0 0 776.000000 776.000000"
 preserveAspectRatio="xMidYMid meet">
<metadata>
Created by potrace 1.14, written by Peter Selinger 2001-2017
</metadata>
<g transform="translate(0.000000,776.000000) scale(0.100000,-0.100000)"
fill="#000000" stroke="none">
<path d="M0 3875 l0 -3395 970 0 c978 0 976 0 972 31 -1 8 -1 365 0 389 0 8 0
62 -1 120 0 58 0 112 0 120 1 8 1 98 0 200 0 102 0 192 1 200 0 8 0 62 -1 120
0 58 0 112 0 120 1 20 0 370 -2 495 -1 55 -1 107 -1 115 1 8 1 116 1 240 0
124 0 232 0 240 0 8 0 62 0 120 -1 58 -1 112 0 120 0 8 0 62 0 120 -1 58 -1
112 0 120 0 8 0 62 0 120 -1 58 -1 112 0 120 0 8 0 35 0 60 0 25 -1 52 0 60 2
38 1 120 -1 127 -2 5 1 10 5 13 4 3 18 -13 30 -35 12 -22 24 -42 27 -45 5 -5
12 -17 55 -96 14 -27 35 -62 45 -79 11 -16 26 -43 34 -60 20 -40 60 -109 67
-115 3 -3 12 -18 21 -35 33 -65 53 -100 61 -103 4 -2 7 -8 7 -13 0 -6 24 -51
54 -102 84 -144 93 -159 122 -212 14 -27 31 -53 36 -56 5 -3 9 -10 9 -15 -1
-5 17 -39 39 -76 22 -37 40 -72 40 -78 0 -5 4 -10 8 -10 4 0 13 -12 19 -27 15
-37 55 -104 71 -121 6 -7 12 -17 12 -21 0 -5 29 -59 65 -121 36 -62 65 -116
65 -121 0 -5 4 -9 9 -9 5 0 13 -10 18 -22 6 -19 57 -110 108 -196 6 -10 28
-49 50 -87 22 -39 44 -78 50 -87 5 -9 23 -41 39 -70 16 -29 37 -65 47 -80 11
-14 19 -30 20 -35 0 -4 25 -48 55 -98 30 -49 63 -108 74 -130 11 -22 31 -58
45 -80 13 -22 37 -62 52 -90 15 -27 32 -58 38 -67 17 -28 86 -150 118 -208 16
-30 36 -62 43 -71 8 -8 14 -18 14 -21 0 -3 41 -76 90 -162 50 -87 90 -162 90
-167 0 -5 4 -9 9 -9 5 0 13 -10 17 -22 3 -12 20 -44 36 -70 l30 -48 969 0 969
0 0 43 c0 23 0 51 -1 62 0 19 0 29 2 58 0 10 1 1395 0 1437 0 8 0 31 0 50 0
19 -1 44 -1 55 -1 11 -1 26 -1 33 2 28 2 40 2 102 -1 36 -1 72 0 80 0 19 0 79
-1 105 -1 11 -1 27 0 35 1 23 0 58 -1 67 -1 4 -1 619 0 1366 l1 1357 970 0
970 0 0 970 0 970 -3880 0 -3880 0 0 -3395z"/>
</g>
</svg>
