<svg xmlns="http://www.w3.org/2000/svg" viewBox="0 0 589.01 581.01"><defs><style>.cls-1,.cls-3{fill:#e68e5a;}.cls-1,.cls-2{opacity:0.5;}</style></defs><g id="Layer_2" data-name="Layer 2"><g id="Layer_1-2" data-name="Layer 1"><path class="cls-1" d="M223.63,149.46a12.24,12.24,0,1,1-12.24-12.23A12.24,12.24,0,0,1,223.63,149.46Z"/><g class="cls-2"><path class="cls-3" d="M509.62,580.6a7.39,7.39,0,0,0-.27-1.91,11.67,11.67,0,0,1,.13-5.83c1-3.59,2.29-7,3.72-10.76,1-2.62.59-4.82-1.36-7.15-2.27-2.73-4.17-5.18-5.8-7.51a5.72,5.72,0,0,1-.63-3.64l.18-.55.57-.24a14.19,14.19,0,0,0,4.89-3.48c2.47-2.34,5.28-5,9.87-4.38a4.41,4.41,0,0,0,3.3-1.21c2.57-3.39,5.2-2.56,7.89-1.33,5.57,2.55,9.79,1.87,13.28-2.13a9.49,9.49,0,0,1,2-1.6,10.85,10.85,0,0,0,1-.73,13,13,0,0,0,5.14-9.46c.28-2.93,2.32-5.76,4.21-8.18a20.85,20.85,0,0,1,3.41-3.24,20.78,20.78,0,0,0,2.83-2.58c5-5.88,9.22-10.88,13.15-16.2a41,41,0,0,0,3.81-6.89c.41-.87.82-1.73,1.25-2.59a22.4,22.4,0,0,0,.9-2.15,15.9,15.9,0,0,1,1.66-3.52c1.79-2.63,2.37-5,1.69-6.83s-2.72-3.3-5.85-4.15c-2.19-.59-6.26-2-9-4.69-.69-.7-1.41-1.39-2.12-2.08-4.4-4.24-8.94-8.63-9.5-15.78a6.13,6.13,0,0,0-1.54-2.61q-.37-.46-.72-.93c-.54-.74-1.14-1.45-1.77-2.19a25.93,25.93,0,0,1-2.92-3.94c-2-3.56-4.69-5-8.41-4.63-4,.43-5.66-1.81-6.92-4.3-.86-1.71-2.86-3.78-4.58-4.16-5.44-1.19-8.88-4.76-12.21-8.2-1.14-1.18-2.32-2.4-3.54-3.47s-1.6-3.23-1.85-5.2c-.1-.77-.19-1.5-.34-2.14s-.27-1.08-.4-1.63a52.19,52.19,0,0,1-1.15-5.4c-.11-.82-.26-1.64-.41-2.48a24.91,24.91,0,0,1-.52-8.28c.76-4.51-.31-7.45-3.56-9.83-.84-.62-1.63-1.29-2.39-1.93s-1.42-1.21-2.15-1.76a11.27,11.27,0,0,1-4.92-10.19c.11-2.32-.27-4.25-1-5-5.05-5.43-3.87-10.85-1.95-16.87a101.74,101.74,0,0,0,4.41-21.7l.14-1.6c.59-7,1.17-7.46,8.91-7.47H512c4.56.12,6.85-1.5,7.71-5.45a4.5,4.5,0,0,1,3.16-3.08c5.28-.91,7.77-4.46,7.39-10.54-.46-7.19,1.23-13.23,5.15-18.44,3.66-4.87,3.94-11,3.72-16.4-.13-3.14-1.92-5.29-5.31-6.4a27.75,27.75,0,0,0-3.8-.85c-.74-.13-1.48-.27-2.21-.43-4.62-1-13.14-9.43-13.82-13.64-.6-3.71-1.21-7.41-1.83-11.13l-1-6.09,1.15-.18c5.62-.91,8.21-5.52,11-10.41.45-.8.9-1.61,1.37-2.4l.54-.92,1,.47c9.8,4.78,10.13,4.72,14.21,4a11.69,11.69,0,0,0,8.68-6.18,6.52,6.52,0,0,0-.1-6.18c-3.91-6.74-8.54-10.68-14.58-12.4-7.9-2.23-13.19-5.78-16.65-11.17a18.33,18.33,0,0,0-3.55-3.69c-.56-.48-1.11-1-1.64-1.46a7.54,7.54,0,0,0-8.68-1.69c-1.71.72-3.44,1.53-5.11,2.31-2.59,1.2-5.26,2.45-8,3.46-4.95,1.82-8.63,5.19-11.92,11-1.27,2.24-2.67,4.44-4,6.56-3.62,5.71-7,11.1-8.68,17.57a6.11,6.11,0,0,1-2.86,3.38c-.79.42-3.34,1.39-4.71.36l-1.11-.83c-5.29-4-10.76-8.08-11.54-16.1-.66-6.82-4.43-11.39-10.62-12.84a215.27,215.27,0,0,0-23.12-3.75c-3.13-.39-6.36-.57-9.49-.74-2.87-.16-5.83-.32-8.75-.64-1.56-.18-4.66-2.14-4.56-4,.32-6.38-3.75-10.49-7.95-14.16a12.39,12.39,0,0,1-4.6-10.21q0-2.67,0-5.34c0-4,0-8.11.23-12.18s-1.37-6.91-5-8.7c-.79-.39-1.62-.71-2.5-1.06a21.37,21.37,0,0,1-4.13-2c-3-2-5.91-4.14-9-6.44-1.38-1-2.83-2.09-4.36-3.21l-1.91-1.38,2.26-.67c9.47-2.79,13.62-7.25,13.88-14.9a5.34,5.34,0,0,1,1.75-3.2A7.53,7.53,0,0,0,369.25,80c.26-.53.53-1.05.81-1.58,1-2,2.1-4,2.2-5.86.05-.88-.8-2.07-1.62-3.23a19.51,19.51,0,0,1-1.42-2.19c-3.56-6.7-9.79-8.65-16.39-10.72A50.83,50.83,0,0,1,343,52.6a4.5,4.5,0,0,0-2.09,0l-.74.11a11.57,11.57,0,0,1-12.79-8.1c-1.24-4.21-2.68-6.55-4.55-7.38s-4.62-.35-8.75,1.64c-1.77.85-4.31-.21-5.05-.56-2-.94-4-2.05-5.93-3.13l-2.48-1.37a8.36,8.36,0,0,0-.86-.39,5.43,5.43,0,0,1-2.11-1.28c-1.26-1.42-2.47-2.92-3.64-4.37a60.89,60.89,0,0,0-6.83-7.58l-.36-.33c-3.89-3.46-7.57-6.72-9.4-12-.23-.67-1.52-1.58-3.13-2.21A23,23,0,0,0,270,4.63c-.7-.13-1.42-.26-2.16-.42l-1.73-.38,1-1.43c.27-.38.51-.74.72-1.07s.52-.79.78-1.13l1.84,1.4c-.15.21-.31.43-.46.67l.39.07a24.81,24.81,0,0,1,4.73,1.19c1.39.54,3.82,1.74,4.48,3.61,1.63,4.7,5.08,7.78,8.74,11l.37.32a65,65,0,0,1,7.09,7.86c1.15,1.43,2.34,2.91,3.56,4.29a3.77,3.77,0,0,0,1.26.67c.37.16.74.31,1.09.5.84.45,1.67.92,2.5,1.39,1.88,1,3.82,2.14,5.79,3a4.62,4.62,0,0,0,3.05.57c4.8-2.31,8.1-2.83,10.7-1.67S328.17,39,329.64,44a9.25,9.25,0,0,0,10.28,6.45l.67-.09a5.54,5.54,0,0,1,3.58.23,49,49,0,0,0,9.35,3.63c6.75,2.12,13.74,4.31,17.75,11.86A18,18,0,0,0,372.53,68c1.05,1.47,2.14,3,2.05,4.69-.13,2.41-1.32,4.66-2.47,6.83-.27.51-.54,1-.79,1.52a10,10,0,0,1-1.5,2c-.55.61-1.16,1.3-1.17,1.72-.28,8.08-4.42,13.19-13.35,16.35l2.54,1.87c3.22,2.38,6,4.44,8.93,6.38a19.53,19.53,0,0,0,3.68,1.74c.89.35,1.81.71,2.69,1.15,4.39,2.18,6.49,5.84,6.25,10.88-.2,4-.21,8.12-.23,12.08,0,1.79,0,3.57,0,5.36a10.14,10.14,0,0,0,3.81,8.44c4.6,4,9.06,8.55,8.74,15.9a4.82,4.82,0,0,0,2.5,1.68c2.85.32,5.78.48,8.62.63,3.16.18,6.43.36,9.65.75a219.69,219.69,0,0,1,23.36,3.8c7.13,1.68,11.65,7.1,12.4,14.88.68,7,5.51,10.62,10.62,14.46L460,202a4.6,4.6,0,0,0,2.21-.55,3.79,3.79,0,0,0,1.71-1.92c1.73-6.81,5.41-12.62,9-18.23,1.34-2.1,2.72-4.28,4-6.47,3.58-6.27,7.63-10,13.13-12,2.64-1,5.28-2.2,7.82-3.39,1.69-.78,3.44-1.6,5.19-2.34a9.83,9.83,0,0,1,11.17,2.14c.51.48,1,.94,1.57,1.4a20.56,20.56,0,0,1,4,4.18c3.17,5,7.9,8.1,15.32,10.2,6.66,1.89,11.73,6.17,16,13.47a8.78,8.78,0,0,1,.2,8.32,14,14,0,0,1-10.39,7.49c-4.83.82-6,.47-14.65-3.76L525.3,202c-2.73,4.85-5.54,9.85-11.47,11.33l.63,3.84c.62,3.72,1.23,7.42,1.83,11.13.53,3.27,8.4,10.95,12,11.75.7.15,1.41.28,2.11.4a29.11,29.11,0,0,1,4.12.94c4.29,1.39,6.74,4.42,6.91,8.5.23,5.79-.08,12.44-4.19,17.89-3.62,4.82-5.11,10.19-4.69,16.91.46,7.24-2.85,11.85-9.32,13a2.5,2.5,0,0,0-1.28,1.28c-1.09,5.06-4.34,7.43-10,7.28H510.2c-3,0-5,0-5.64.56s-.73,2.11-1,4.79l-.14,1.61A104.48,104.48,0,0,1,499,335.34c-1.82,5.69-2.77,10.06,1.44,14.59,1.6,1.73,1.69,4.95,1.6,6.72a8.9,8.9,0,0,0,4,8.22c.8.59,1.55,1.23,2.28,1.85s1.48,1.26,2.25,1.82c4,2.94,5.39,6.67,4.48,12.09a23,23,0,0,0,.52,7.5c.15.86.3,1.71.42,2.56a51.52,51.52,0,0,0,1.1,5.16c.14.56.27,1.11.4,1.66a22.71,22.71,0,0,1,.39,2.38c.19,1.47.4,3.14,1.08,3.75,1.29,1.13,2.5,2.38,3.68,3.6,3.23,3.34,6.28,6.5,11,7.55,2.54.56,5,3.12,6.15,5.37,1.29,2.54,2.4,3.29,4.6,3,4.69-.52,8.18,1.38,10.68,5.79a24.63,24.63,0,0,0,2.67,3.58c.63.74,1.28,1.51,1.87,2.32.21.28.44.56.67.85a7.72,7.72,0,0,1,2,3.87c.48,6.29,4.52,10.18,8.79,14.3.73.7,1.45,1.4,2.15,2.11a18,18,0,0,0,7.92,4.09c3.9,1.05,6.46,3,7.42,5.58s.28,5.67-2,8.94a14.93,14.93,0,0,0-1.4,3c-.3.78-.6,1.59-1,2.37s-.83,1.69-1.23,2.55a44.22,44.22,0,0,1-4,7.27c-4,5.37-8.18,10.42-13.26,16.33a24,24,0,0,1-3.12,2.87,19.19,19.19,0,0,0-3.06,2.87c-1.68,2.16-3.5,4.66-3.72,7a15.47,15.47,0,0,1-6,11c-.38.3-.79.58-1.19.85a8.39,8.39,0,0,0-1.51,1.2c-4.15,4.76-9.53,5.68-16,2.72-2.48-1.14-3.56-1.38-5.08.63a6.69,6.69,0,0,1-5.45,2.1c-3.49-.47-5.58,1.49-8,3.76a17.89,17.89,0,0,1-5,3.71,3.92,3.92,0,0,0,.28,1.2c1.59,2.26,3.45,4.66,5.69,7.34a8.87,8.87,0,0,1,1.74,9.47c-1.42,3.71-2.67,7.06-3.66,10.55a9.2,9.2,0,0,0-.11,4.62,10.06,10.06,0,0,1,.34,2.49Z"/></g><g class="cls-2"><path class="cls-3" d="M161.7,581l-2.16-.84c.34-.89.75-1.86,1.2-2.86a6.4,6.4,0,0,0,.28-.82l-1.51-.36c-1.91-.45-3.76-.89-5.6-1.37-6.48-1.68-9.84-6.12-9.23-12.18,1-9.81,4.34-14.09,11.5-14.78a34.11,34.11,0,0,0,5.55-.89c5.1-1.33,9.48-.76,13.4,1.73,1.85,1.18,2.86,1,4.48-1,3.83-4.63,7.87-8.85,15-9.56,3.21-.32,3.18-3.46,2.79-7.86-.25-2.76-.91-3.79-4.09-4.13-3.53-.38-7-2.5-10-4.38l-1.37-.84c-3.6-2.25-6.45-4-11.15-3.66-3.65.28-7.34-1.76-10.9-3.74-1.05-.58-2.05-1.14-3-1.63a4.82,4.82,0,0,1-1.9-2.67,3.75,3.75,0,0,1-.06-2.72c1.12-2.2.23-3.1-1.75-4.75l-1.41-1.21c-4.05-3.49-7.86-6.8-13.79-6.57-4,.15-8.09-1.57-11.23-3.09a17.83,17.83,0,0,1-6.94-6.16c-2.52-3.94-4.65-6.7-9.35-6.23a12.83,12.83,0,0,1-3.83-.4l-.94-.18c-5.53-1-9.76-2.87-12.44-8.4-2.86-5.92-6.37-9.75-11.06-12.05-2.22-1.1-3.37-3.86-4.48-6.53-.42-1-.81-2-1.25-2.8a3.07,3.07,0,0,1-.19-1.76,3.32,3.32,0,0,0,0-.41c-1-1.53-2.07-3.11-3-4.65-2.55-4-5.18-8.1-8.54-11.24-3.58-3.34-8.24-5.8-12.74-8.17-1.22-.64-2.43-1.28-3.62-1.93-11.81-6.49-15.15-16.77-9.4-29,.63-1.34,1.29-2.73,2-4.07,3.41-6.4,5.49-7.17,12.38-4.61a4.91,4.91,0,0,0,3.31.08c4.79-2.11,7.79-2.48,10-1.22,2,1.1,3.18,3.34,3.93,7.34l3.75-2.83.08-.54c.14-1,.29-2,.44-3.06.36-2.4.73-4.88,1-7.32,0-.38.08-.77.13-1.17.2-1.74.41-3.55-.15-4.74s-1.22-2.73-1.82-4.12c-2-4.71-4.12-9.57-7.45-12.94-9.23-9.32-15.82-20-20.53-28.26a84.92,84.92,0,0,1-7.39-15.86c-1.43-4.48-.44-6.87.65-8.08s3.35-2.46,8-1.53a33.67,33.67,0,0,1,12.89,5.86c9.84,7.35,19.35,6.76,27.5-1.71l2.89-3c-.94-.7-1.89-1.37-2.82-2-2.85-2-5.54-3.87-7.46-6.45A54.55,54.55,0,0,0,71,281.63c-1.35-1.15-2.75-2.33-4.1-3.56-.87-.79-1.81-1.5-2.8-2.25a33,33,0,0,1-3.68-3.06,23.54,23.54,0,0,1-4.57-6.28c-1.27-2.64-2.3-5.35-3.38-8.23q-.48-1.25-1-2.52l-.79.44a11.93,11.93,0,0,1-3.19,1.43c-2.18.49-4.37.8-5.64-.26-1.9-1.6-4-3.11-5.95-4.57-5.51-4.05-11.2-8.23-14.72-14.9-2.85-5.42-2.82-8.53.12-13.88,3.1-5.62,3.75-10.6,2-15.24-2.63-6.92-.37-12.13,6.54-15.05a4.32,4.32,0,0,0,1.45-1.62c-3.44-7.19,2.31-11.64,5.42-14.05,3.86-3,5.82-6.89,7.49-10.61q.23-.53.45-1.08A10.86,10.86,0,0,1,47.34,162c3.16-2.68,4.43-6.08,4.09-11-.41-6,1-10.95,4.25-15.1a3.47,3.47,0,0,0,1-2.7c-.23-1-1.29-1.64-2.14-2a14.92,14.92,0,0,1-3.18-2.21c-.57-.47-1.11-.92-1.68-1.31-1.82-1.25-3.33-.73-5.64.23a13.09,13.09,0,0,1-3.62,1.09,7.82,7.82,0,0,1-3.86-.87c-1.89-.79-3.26-1.36-5.14.5-3.6,3.56-8.1,6.2-12.46,8.76l-.2.11c-4.9,2.87-9.69,2.26-12.8-1.64-4-5-5.34-13.44-1.19-17.3,1.69-1.58,5.33-3.54,7.78-2.74,3.72,1.21,6.06-.32,8.83-2.42l-.28,0c-3.1-.29-5.53-1.68-6.66-3.84s-.9-4.54.49-7c2.81-5,1.92-10,1-15.3L15.66,86c-.08-.44-.16-.88-.25-1.33A18.05,18.05,0,0,1,15,79.48c.66-6.46,3.88-9.19,10.47-8.85,1.17.06,2.2.11,2.52-.21.15-.15.39-.59.34-2-.09-2.5,1-6.62,3.3-7.86s5.83-.44,8.61.23l.11,0A10.69,10.69,0,0,1,44.08,63l.46.34,2.19-3.57c-1.35-.59-2.71-1.2-4.08-1.82-3.84-1.72-7.82-3.5-11.82-5.13-5.41-2.18-9.66-5.94-13.38-11.8a12.46,12.46,0,0,0-4-3.25l-.66-.41c-1.11-.69-2.31-1.33-3.48-1.94a34.3,34.3,0,0,1-5.42-3.28C1.74,30.4.24,28.87,0,27s.91-3.74,2.8-6.06l1.6-2c-5.16-4.87-3.8-10.55-2-15A9.5,9.5,0,0,1,5.07,0L6.54,1.79a7.4,7.4,0,0,0-1.95,3c-2.46,6.05-1.83,9.85,2.17,13.11l.9.72-3,3.77c-1.74,2.13-2.4,3.38-2.3,4.34s1,2,3,3.59a32.18,32.18,0,0,0,5.06,3.05c1.2.63,2.45,1.28,3.64,2l.64.4a14.32,14.32,0,0,1,4.71,4c3.45,5.44,7.35,8.91,12.29,10.91,4,1.63,8,3.43,11.9,5.16,1.77.79,3.53,1.58,5.27,2.34l1.22.54-4.83,7.89-1-.64c-.55-.35-1.07-.74-1.57-1.12a9.21,9.21,0,0,0-2.94-1.71l-.11,0c-2.27-.55-5.37-1.31-7-.45-1.09.59-2.16,3.54-2.08,5.73.06,1.77-.26,2.95-1,3.7-1.05,1-2.57,1-4.17.88-5.44-.27-7.61,1.56-8.15,6.77a16.06,16.06,0,0,0,.44,4.47c.09.46.18.92.25,1.37l.21,1.19c1,5.46,2,11.11-1.24,16.84a5,5,0,0,0-.47,4.8c.77,1.45,2.52,2.4,4.82,2.6a16.42,16.42,0,0,0,2,0h5.22l-3,2.11c-.75.52-1.45,1.06-2.14,1.59-3.15,2.42-6.41,4.92-11.55,3.24-1.13-.37-3.91.76-5.49,2.24-2.86,2.66-2.16,9.67,1.43,14.16,2.39,3,5.88,3.38,9.81,1.08l.2-.12c4.23-2.48,8.61-5,12-8.4,3-3,5.69-1.81,7.66-1a6.13,6.13,0,0,0,2.73.71,11.35,11.35,0,0,0,3-.94c2.17-.9,4.88-2,7.84,0,.65.45,1.26,1,1.84,1.44A12.94,12.94,0,0,0,55.48,129a5.58,5.58,0,0,1,3.41,3.61,5.52,5.52,0,0,1-1.38,4.66c-2.95,3.74-4.14,8-3.77,13.51.39,5.66-1.17,9.77-4.9,12.94a9.17,9.17,0,0,0-2,3.48l-.48,1.13c-1.79,4-3.9,8.18-8.19,11.5-4,3.06-7.28,6.24-4.62,11.47a1.73,1.73,0,0,1,0,1.43,6.37,6.37,0,0,1-2.78,3.08c-5.8,2.45-7.47,6.29-5.27,12.09,2,5.31,1.32,10.93-2.13,17.17-2.56,4.67-2.58,7-.09,11.69,3.26,6.19,8.5,10,14,14.11,2,1.48,4.1,3,6.06,4.66.17.14.86.4,3.64-.22a10.34,10.34,0,0,0,2.56-1.19c.58-.33,1.23-.7,2-1.09l1.14-.58.47,1.18c.51,1.29,1,2.54,1.45,3.77,1.06,2.83,2.07,5.5,3.3,8.05a21.26,21.26,0,0,0,4.13,5.65A30.32,30.32,0,0,0,65.5,274c1,.75,2,1.52,3,2.39,1.31,1.2,2.69,2.37,4,3.49A57.82,57.82,0,0,1,82,289.29c1.7,2.29,4.24,4.06,6.93,5.94,1.29.9,2.63,1.83,3.93,2.87l1,.78-1.35,1.43c-.9.95-2.1,2.22-3.31,3.48-8.95,9.3-19.8,10-30.56,2a31.29,31.29,0,0,0-12-5.45c-2.78-.56-4.78-.29-5.75.8s-1,3.11-.17,5.83A82.27,82.27,0,0,0,48,322.35c4.64,8.13,11.13,18.65,20.17,27.78,3.63,3.68,5.82,8.75,7.93,13.65.59,1.37,1.18,2.74,1.8,4.06.83,1.79.57,4,.34,6,0,.39-.09.76-.12,1.13-.24,2.5-.61,5-1,7.44-.1.61-.19,1.22-.27,1.82l2.84.22-2.38,1.86-6.91,5.21-1.58,1.19-.27-2C68,386.42,67,384,65.49,383.17s-4-.45-8,1.31a7.27,7.27,0,0,1-5.06,0c-5.84-2.18-6.65-1.89-9.52,3.52-.69,1.29-1.33,2.65-2,4-5.23,11.06-2.32,20,8.42,25.92,1.18.65,2.38,1.28,3.58,1.92,4.64,2.44,9.44,5,13.25,8.53,3.56,3.33,6.28,7.58,8.9,11.68,1,1.56,2,3.16,3.08,4.68a2.64,2.64,0,0,1,.29,1.88,2.53,2.53,0,0,0,0,.52c.45.85.89,1.89,1.31,2.9.94,2.28,1.92,4.63,3.36,5.34,5.17,2.54,9,6.71,12.12,13.12,2.26,4.67,5.8,6.19,10.78,7.13l1,.19a11.13,11.13,0,0,0,3.15.36c6-.58,8.86,3.11,11.53,7.29a15.67,15.67,0,0,0,6,5.32c2.67,1.29,6.61,3,10.13,2.86,6.84-.24,11.19,3.5,15.39,7.13l1.39,1.19c1.83,1.53,4.34,3.64,2.33,7.58a3.85,3.85,0,0,0,.94,2.27c1,.51,2.09,1.1,3.12,1.67,3.26,1.81,6.62,3.69,9.59,3.46,5.46-.42,8.91,1.72,12.56,4l1.36.84c3,1.83,6,3.72,9,4,4.68.5,5.84,2.84,6.14,6.19.34,3.71.89,9.84-4.86,10.42-6.23.62-9.75,4.32-13.4,8.73-2.35,2.84-4.66,3.3-7.52,1.49-3.35-2.13-7.13-2.6-11.57-1.44a36.48,36.48,0,0,1-5.91,1c-5.06.49-8.4,2.78-9.41,12.7-.5,4.88,2.17,8.32,7.5,9.7,1.83.48,3.67.92,5.56,1.37l2.7.65,1.2.29-.37,1.18c-.12.37-.2.68-.28,1a8.63,8.63,0,0,1-.45,1.33C162.42,579.23,162,580.15,161.7,581ZM76.32,446h0Z"/></g><path class="cls-1" d="M276.59,210.36c-2.43-4.05-4.54-8.32-9.45-10.34-2.81-1.15-2.78-4.55-.38-6.52,1-.84,2.19-1.55,3.31-2.3,2.92-1.94,3.32-4.26,1.35-7.21-2.41-3.6-2-6.16,1.46-7.26h0l.29-.1c.32-.08.9-.23,1.59-.43l.9-.26a99.54,99.54,0,0,1-14-5.39c-6.56-2.62-9.89-8.72-14.08-13.95-2.34-2.92-4.39-4.36-5.84-8a47.68,47.68,0,0,1-3.15-12.85,6.12,6.12,0,0,1,.26-3.07,9.64,9.64,0,0,1,1.85-2.29c2.52-2.79,4.12-9.74.83-12.7-1.45-1.31-4.49-1.42-6.34-2.49a34.2,34.2,0,0,1-5.8-4.6c-4.89-4.5-9-9.84-13.36-15A10.81,10.81,0,0,1,213.92,91a7.56,7.56,0,0,0-9.65-6.08c-1.51.36-3.16.09-4.72.32-1.91.27-4.82.18-5.43,1.29-.89,1.58-.12,4.1,0,6.21,0,.38.58.69.72,1.1.71,2,2,3.89,2.42,6,.39,2-.75,4.1-1.91,5.6a10.29,10.29,0,0,1-2.71,2.47,31,31,0,0,1-4.54,2.07,34.22,34.22,0,0,0-5.79,3.09,3.46,3.46,0,0,0-1,.9,7.58,7.58,0,0,0-.5,1.3c-.41,1-1.33,1.9-1.37,3a8.32,8.32,0,0,1-.63,3.22,29.64,29.64,0,0,1-1.87,3.29c-1,1.75-2.71,3.19-3.47,5-1.89,4.59-2.54,9.64-6.57,13.39-1.18,1.1-.23,4.4-.42,6.68-.25,2.9-.6,5.81-1,8.71-.6,4.07-3.13,7.07-6.36,9.43-1.55,1.13-3.2,2.12-4.79,3.2-1.34.9-3.93,2.28-4.59,3.76a12.74,12.74,0,0,0-.51,1.73,7.94,7.94,0,0,0-.46,1.58A34.68,34.68,0,0,0,149,184c.14,2.26.27,4.52.59,6.76.29,2,.56,4.77,1.86,5.65,4.75,3.2,9.26,8,16,4.78a3,3,0,0,1,2.39.2c6.71,4.19,6.69,4.21,12.05-1.79,3.56,8.87,5.22,17.35.88,26.39-4.11,8.55-2.1,15.82,4.37,22.76,4.05,4.36,8.05,6.77,13.92,4.47,1.1-.43,2.54-.59,3.24-1.39,3.85-4.42,7.52-9,11.24-13.54a33.14,33.14,0,0,1,2.21-2.8c2.89-2.8,3.09-5.32.15-8.46-.95-1-.34-3.51-.45-5.33l1.76-.2c1.18.57,2.32,1.52,3.56,1.66,4.65.54,9,1,8.66,7.54,0,.55,3.58,1.73,5.55,1.85,1.45.09,3-1.06,4.94-1.84,1.21,5.56,5,6.71,10,8a50.61,50.61,0,0,1,12.3,4.4c2.12-2.91,4.77-6.54,5.05-7.17,1.3-3,1.38-5.38-2.27-6.92-1.49-.62-2.59-2.22-3.92-3.43,2.31-3.16,3.32-6.47,8.3-5.81C275.92,220.32,278.94,214.29,276.59,210.36Zm-65.2-28.94s-17.53-21.82-17.53-31.5a17.54,17.54,0,1,1,35.07,0C228.93,159.6,211.39,181.42,211.39,181.42Z"/></g></g></svg>